# Blender v2.82 (sub 7) OBJ File: 'VacuumCleaner.blend'
# www.blender.org
mtllib VacuumCleaner.mtl
o Cylinder
v 0.527592 1.263755 -0.254937
v 0.185348 0.642990 -0.931807
v 0.577328 1.263755 -0.250039
v 0.363573 0.642990 -0.877743
v 0.625153 1.263755 -0.235531
v 0.527826 0.642990 -0.789948
v 0.669228 1.263755 -0.211973
v 0.671795 0.642990 -0.671795
v 0.707860 1.263755 -0.180268
v 0.789948 0.642990 -0.527826
v 0.739565 1.263755 -0.141635
v 0.877743 0.642990 -0.363573
v 0.763124 1.263755 -0.097560
v 0.931807 0.642990 -0.185348
v 0.777631 1.263755 -0.049736
v 0.950062 0.642990 -0.000000
v 0.782530 1.263755 0.000000
v 0.931807 0.642990 0.185348
v 0.777631 1.263755 0.049736
v 0.877743 0.642990 0.363573
v 0.763124 1.263755 0.097560
v 0.789948 0.642990 0.527826
v 0.739565 1.263755 0.141635
v 0.671795 0.642990 0.671795
v 0.707860 1.263755 0.180268
v 0.527826 0.642990 0.789948
v 0.669228 1.263755 0.211973
v 0.363573 0.642990 0.877743
v 0.625153 1.263755 0.235531
v 0.185348 0.642990 0.931807
v 0.577328 1.263755 0.250039
v 0.527592 1.263755 0.254937
v -0.185348 0.642990 0.931807
v 0.477856 1.263755 0.250039
v -0.363573 0.642990 0.877743
v 0.430032 1.263755 0.235531
v -0.527827 0.642990 0.789948
v 0.385957 1.263755 0.211973
v -0.671796 0.642990 0.671795
v 0.347324 1.263755 0.180268
v -0.789948 0.642990 0.527826
v 0.315620 1.263755 0.141635
v -0.877743 0.642990 0.363572
v 0.292061 1.263755 0.097560
v -0.931807 0.642990 0.185347
v 0.277553 1.263755 0.049736
v -0.950062 0.642990 -0.000001
v 0.272655 1.263755 -0.000000
v -0.931807 0.642990 -0.185349
v 0.277554 1.263755 -0.049736
v -0.877743 0.642990 -0.363574
v 0.292061 1.263755 -0.097561
v -0.789947 0.642990 -0.527827
v 0.315620 1.263755 -0.141636
v -0.671795 0.642990 -0.671796
v 0.347325 1.263755 -0.180268
v -0.527825 0.642990 -0.789949
v 0.385957 1.263755 -0.211973
v -0.363572 0.642990 -0.877744
v 0.430032 1.263755 -0.235532
v -0.185346 0.642990 -0.931807
v 0.477857 1.263755 -0.250039
v 0.195090 1.084696 -0.980785
v 0.382683 1.084696 -0.923880
v 0.555570 1.084696 -0.831470
v 0.707107 1.084696 -0.707107
v 0.831470 1.084696 -0.555570
v 0.923880 1.084696 -0.382683
v 0.980785 1.084696 -0.195090
v 1.000000 1.084696 -0.000000
v 0.980785 1.084696 0.195090
v 0.923880 1.084696 0.382683
v 0.831470 1.084696 0.555570
v 0.707107 1.084696 0.707107
v 0.555570 1.084696 0.831470
v 0.382683 1.084696 0.923880
v 0.195090 1.084696 0.980785
v -0.195091 1.084696 0.980785
v -0.382684 1.084696 0.923879
v -0.555571 1.084696 0.831469
v -0.707107 1.084696 0.707106
v -0.831470 1.084696 0.555570
v -0.923880 1.084696 0.382683
v -0.980785 1.084696 0.195089
v -1.000000 1.084696 -0.000001
v -0.980785 1.084696 -0.195091
v -0.923879 1.084696 -0.382684
v -0.831469 1.084696 -0.555571
v -0.707106 1.084696 -0.707108
v -0.555569 1.084696 -0.831470
v -0.382682 1.084696 -0.923880
v -0.195089 1.084696 -0.980786
v 0.183578 1.122963 -0.922907
v 0.360100 1.122963 -0.869359
v 0.522785 1.122963 -0.782403
v 0.665379 1.122963 -0.665379
v 0.782403 1.122963 -0.522785
v 0.869359 1.122963 -0.360100
v 0.922907 1.122963 -0.183578
v 0.940988 1.122963 -0.000000
v 0.922907 1.122963 0.183577
v 0.869359 1.122963 0.360100
v 0.782403 1.122963 0.522785
v 0.665379 1.122963 0.665379
v 0.522785 1.122963 0.782403
v 0.360100 1.122963 0.869359
v 0.183577 1.122963 0.922907
v -0.183578 1.122963 0.922907
v -0.360101 1.122963 0.869359
v -0.522785 1.122963 0.782402
v -0.665379 1.122963 0.665378
v -0.782403 1.122963 0.522784
v -0.869360 1.122963 0.360100
v -0.922907 1.122963 0.183577
v -0.940988 1.122963 -0.000001
v -0.922907 1.122963 -0.183579
v -0.869359 1.122963 -0.360101
v -0.782402 1.122963 -0.522786
v -0.665378 1.122963 -0.665380
v -0.522784 1.122963 -0.782403
v -0.360099 1.122963 -0.869360
v -0.183576 1.122963 -0.922907
v 0.180159 1.033126 -0.905722
v 0.353395 1.033126 -0.853171
v 0.513050 1.033126 -0.767834
v 0.652989 1.033126 -0.652989
v 0.767834 1.033126 -0.513050
v 0.853171 1.033126 -0.353395
v 0.905722 1.033126 -0.180159
v 0.923466 1.033126 -0.000000
v 0.905722 1.033126 0.180159
v 0.853172 1.033126 0.353395
v 0.767834 1.033126 0.513050
v 0.652989 1.033126 0.652989
v 0.513050 1.033126 0.767834
v 0.353395 1.033126 0.853172
v 0.180159 1.033126 0.905722
v -0.180160 1.033126 0.905722
v -0.353396 1.033126 0.853171
v -0.513051 1.033126 0.767834
v -0.652990 1.033126 0.652989
v -0.767834 1.033126 0.513050
v -0.853172 1.033126 0.353395
v -0.905722 1.033126 0.180159
v -0.923466 1.033126 -0.000001
v -0.905722 1.033126 -0.180160
v -0.853171 1.033126 -0.353396
v -0.767833 1.033126 -0.513051
v -0.652988 1.033126 -0.652990
v -0.513049 1.033126 -0.767835
v -0.353394 1.033126 -0.853172
v -0.180158 1.033126 -0.905722
v 0.174638 1.033549 -0.877966
v -0.000000 1.033549 -0.895166
v 0.342565 1.033549 -0.827026
v 0.497328 1.033549 -0.744303
v 0.632978 1.033549 -0.632978
v 0.744303 1.033549 -0.497327
v 0.827026 1.033549 -0.342565
v 0.877966 1.033549 -0.174638
v 0.895166 1.033549 -0.000000
v 0.877966 1.033549 0.174638
v 0.827026 1.033549 0.342565
v 0.744303 1.033549 0.497327
v 0.632978 1.033549 0.632978
v 0.497328 1.033549 0.744303
v 0.342565 1.033549 0.827026
v 0.174638 1.033549 0.877966
v -0.000000 1.033549 0.895166
v -0.174639 1.033549 0.877966
v -0.342566 1.033549 0.827025
v -0.497328 1.033549 0.744303
v -0.632978 1.033549 0.632977
v -0.744304 1.033549 0.497327
v -0.827026 1.033549 0.342564
v -0.877966 1.033549 0.174637
v -0.895166 1.033549 -0.000001
v -0.877965 1.033549 -0.174639
v -0.827025 1.033549 -0.342566
v -0.744303 1.033549 -0.497328
v -0.632977 1.033549 -0.632979
v -0.497327 1.033549 -0.744304
v -0.342564 1.033549 -0.827026
v -0.174637 1.033549 -0.877966
v 0.175698 1.145554 -0.883295
v -0.000000 1.145554 -0.900600
v 0.344645 1.145554 -0.832045
v 0.500346 1.145554 -0.748821
v 0.636820 1.145554 -0.636820
v 0.748821 1.145554 -0.500346
v 0.832045 1.145554 -0.344645
v 0.883295 1.145554 -0.175698
v 0.900600 1.145554 -0.000000
v 0.883295 1.145554 0.175698
v 0.832046 1.145554 0.344644
v 0.748821 1.145554 0.500346
v 0.636820 1.145554 0.636820
v 0.500346 1.145554 0.748821
v 0.344644 1.145554 0.832046
v 0.175698 1.145554 0.883295
v -0.000000 1.145554 0.900600
v -0.175699 1.145554 0.883295
v -0.344645 1.145554 0.832045
v -0.500347 1.145554 0.748821
v -0.636820 1.145554 0.636820
v -0.748822 1.145554 0.500346
v -0.832046 1.145554 0.344644
v -0.883295 1.145554 0.175698
v -0.900600 1.145554 -0.000001
v -0.883295 1.145554 -0.175699
v -0.832045 1.145554 -0.344645
v -0.748821 1.145554 -0.500347
v -0.636819 1.145554 -0.636821
v -0.500345 1.145554 -0.748822
v -0.344643 1.145554 -0.832046
v -0.175697 1.145554 -0.883295
v 0.583310 1.146960 -0.280113
v 0.527592 1.146960 -0.285600
v 0.636887 1.146960 -0.263860
v 0.686263 1.146960 -0.237468
v 0.729542 1.146960 -0.201950
v 0.765060 1.146960 -0.158671
v 0.791452 1.146960 -0.109295
v 0.807705 1.146960 -0.055718
v 0.813193 1.146960 0.000000
v 0.807705 1.146960 0.055718
v 0.791453 1.146960 0.109294
v 0.765060 1.146960 0.158671
v 0.729542 1.146960 0.201950
v 0.686263 1.146960 0.237468
v 0.636887 1.146960 0.263860
v 0.583310 1.146960 0.280113
v 0.527592 1.146960 0.285600
v 0.471874 1.146960 0.280112
v 0.418298 1.146960 0.263860
v 0.368921 1.146960 0.237468
v 0.325642 1.146960 0.201950
v 0.290124 1.146960 0.158671
v 0.263732 1.146960 0.109294
v 0.247480 1.146960 0.055718
v 0.241992 1.146960 -0.000000
v 0.247480 1.146960 -0.055718
v 0.263732 1.146960 -0.109295
v 0.290125 1.146960 -0.158671
v 0.325643 1.146960 -0.201950
v 0.368922 1.146960 -0.237468
v 0.418298 1.146960 -0.263860
v 0.471875 1.146960 -0.280113
v 0.583090 1.063416 -0.279004
v 0.527592 1.063416 -0.284470
v 0.636454 1.063416 -0.262816
v 0.685635 1.063416 -0.236528
v 0.728743 1.063416 -0.201150
v 0.764121 1.063416 -0.158043
v 0.790408 1.063416 -0.108862
v 0.806596 1.063416 -0.055497
v 0.812062 1.063416 0.000000
v 0.806596 1.063416 0.055497
v 0.790408 1.063416 0.108862
v 0.764121 1.063416 0.158043
v 0.728743 1.063416 0.201151
v 0.685635 1.063416 0.236528
v 0.636454 1.063416 0.262816
v 0.583090 1.063416 0.279004
v 0.527592 1.063416 0.284470
v 0.472095 1.063416 0.279004
v 0.418730 1.063416 0.262816
v 0.369549 1.063416 0.236528
v 0.326442 1.063416 0.201151
v 0.291064 1.063416 0.158043
v 0.264776 1.063416 0.108862
v 0.248588 1.063416 0.055497
v 0.243122 1.063416 -0.000000
v 0.248588 1.063416 -0.055498
v 0.264776 1.063416 -0.108862
v 0.291064 1.063416 -0.158043
v 0.326442 1.063416 -0.201151
v 0.369550 1.063416 -0.236528
v 0.418731 1.063416 -0.262816
v 0.472096 1.063416 -0.279004
v 0.577328 1.064823 -0.250039
v 0.527592 1.064823 -0.254937
v 0.625153 1.064823 -0.235531
v 0.669228 1.064823 -0.211973
v 0.707860 1.064823 -0.180268
v 0.739565 1.064823 -0.141635
v 0.763124 1.064823 -0.097560
v 0.777631 1.064823 -0.049736
v 0.782530 1.064823 0.000000
v 0.777631 1.064823 0.049736
v 0.763124 1.064823 0.097560
v 0.739565 1.064823 0.141635
v 0.707860 1.064823 0.180268
v 0.669228 1.064823 0.211973
v 0.625153 1.064823 0.235531
v 0.577328 1.064823 0.250039
v 0.527592 1.064823 0.254937
v 0.477856 1.064823 0.250039
v 0.430032 1.064823 0.235531
v 0.385957 1.064823 0.211973
v 0.347324 1.064823 0.180268
v 0.315620 1.064823 0.141635
v 0.292061 1.064823 0.097560
v 0.277553 1.064823 0.049736
v 0.272655 1.064823 -0.000000
v 0.277554 1.064823 -0.049736
v 0.292061 1.064823 -0.097561
v 0.315620 1.064823 -0.141636
v 0.347325 1.064823 -0.180268
v 0.385957 1.064823 -0.211973
v 0.430032 1.064823 -0.235532
v 0.477857 1.064823 -0.250039
v 0.527592 1.159318 -0.267337
v 0.579747 1.159318 -0.262200
v 0.629898 1.159318 -0.246987
v 0.676117 1.159318 -0.222283
v 0.716628 1.159318 -0.189036
v 0.749875 1.159318 -0.148524
v 0.774580 1.159318 -0.102306
v 0.789793 1.159318 -0.052155
v 0.794929 1.159318 0.000000
v 0.789793 1.159318 0.052155
v 0.774580 1.159318 0.102305
v 0.749875 1.159318 0.148524
v 0.716628 1.159318 0.189036
v 0.676117 1.159318 0.222283
v 0.629898 1.159318 0.246987
v 0.579747 1.159318 0.262200
v 0.527592 1.159318 0.267337
v 0.475437 1.159318 0.262200
v 0.425287 1.159318 0.246987
v 0.379068 1.159318 0.222283
v 0.338556 1.159318 0.189036
v 0.305310 1.159318 0.148524
v 0.280605 1.159318 0.102305
v 0.265392 1.159318 0.052155
v 0.260255 1.159318 -0.000000
v 0.265392 1.159318 -0.052155
v 0.280605 1.159318 -0.102306
v 0.305310 1.159318 -0.148525
v 0.338557 1.159318 -0.189036
v 0.379068 1.159318 -0.222283
v 0.425287 1.159318 -0.246987
v 0.475438 1.159318 -0.262201
v 0.475588 1.165780 -0.261448
v 0.789040 1.165780 -0.052005
v 0.266144 1.165780 0.052005
v 0.527592 1.165780 -0.266570
v 0.579597 1.165780 -0.261448
v 0.305948 1.165780 -0.148099
v 0.281314 1.165780 -0.102012
v 0.675690 1.165780 -0.221645
v 0.629604 1.165780 -0.246278
v 0.425581 1.165780 -0.246279
v 0.379494 1.165780 -0.221645
v 0.339099 1.165780 -0.188494
v 0.266145 1.165780 -0.052006
v 0.261022 1.165780 -0.000000
v 0.578081 1.231227 -0.253827
v 0.477104 1.231227 -0.253827
v 0.527592 1.231227 -0.258799
v 0.428554 1.231227 -0.239100
v 0.383811 1.231227 -0.215184
v 0.428554 1.231227 0.239099
v 0.626630 1.231227 0.239099
v 0.626631 1.231227 -0.239099
v 0.344594 1.231227 -0.182999
v 0.312409 1.231227 -0.143781
v 0.710591 1.231227 -0.182999
v 0.671373 1.231227 -0.215184
v 0.766692 1.231227 0.099038
v 0.716086 1.165780 -0.188493
v 0.749237 1.165780 -0.148098
v 0.773871 1.165780 -0.102012
v 0.288493 1.231227 -0.099039
v 0.742776 1.231227 -0.143781
v 0.766692 1.231227 -0.099038
v 0.781419 1.231227 -0.050489
v 0.383811 1.231227 0.215184
v 0.344593 1.231227 0.182999
v 0.273766 1.231227 -0.050490
v 0.312408 1.231227 0.143781
v 0.288493 1.231227 0.099038
v 0.794162 1.165780 0.000000
v 0.789040 1.165780 0.052005
v 0.773871 1.165780 0.102012
v 0.579598 1.165780 0.261448
v 0.749237 1.165780 0.148098
v 0.786392 1.231227 0.000000
v 0.781419 1.231227 0.050489
v 0.742776 1.231227 0.143781
v 0.710591 1.231227 0.182999
v 0.671373 1.231227 0.215184
v 0.716086 1.165780 0.188493
v 0.675690 1.165780 0.221645
v 0.629604 1.165780 0.246279
v 0.477103 1.231227 0.253827
v 0.578082 1.231227 0.253827
v 0.527592 1.231227 0.258799
v 0.425580 1.165780 0.246278
v 0.475587 1.165780 0.261448
v 0.527592 1.165780 0.266570
v 0.305947 1.165780 0.148098
v 0.281314 1.165780 0.102012
v 0.379494 1.165780 0.221645
v 0.339099 1.165780 0.188493
v 0.273766 1.231227 0.050489
v 0.268793 1.231227 -0.000000
v -0.038699 1.084696 0.996188
v -0.088396 0.642990 0.941356
v -0.038699 1.033126 0.919655
v -0.038699 1.122963 0.937176
v -0.038699 1.033172 0.916603
v -0.088396 0.642990 0.874395
v 0.038969 1.033171 0.916603
v -0.000000 1.033229 0.916601
v 0.088667 0.642990 0.874395
v 0.038969 1.084696 0.996162
v 0.088667 0.642990 0.941329
v 0.038969 1.122963 0.937150
v 0.038969 1.033126 0.919628
v 0.038969 1.084696 -0.996162
v 0.088667 0.642990 -0.941329
v 0.038969 1.122963 -0.937150
v 0.038969 1.033126 -0.919628
v 0.088667 0.642990 -0.876746
v 0.038969 1.033136 -0.918955
v -0.038699 1.033136 -0.918955
v -0.000000 1.033193 -0.918954
v -0.088396 0.642990 -0.876746
v -0.038699 1.084696 -0.996189
v -0.088396 0.642990 -0.941356
v -0.038699 1.033126 -0.919655
v -0.038699 1.122963 -0.937176
v 0.038969 0.673702 -0.996162
v 0.195090 0.673702 -0.980785
v 0.382683 0.673702 -0.923880
v 0.555570 0.673702 -0.831470
v 0.707107 0.673702 -0.707107
v 0.831470 0.673702 -0.555570
v 0.923880 0.673702 -0.382683
v 0.980785 0.673702 -0.195090
v 1.000000 0.673702 -0.000000
v 0.980785 0.673702 0.195090
v 0.923880 0.673702 0.382683
v 0.831470 0.673702 0.555570
v 0.707107 0.673702 0.707107
v 0.555570 0.673702 0.831470
v 0.382683 0.673702 0.923880
v 0.195090 0.673702 0.980785
v -0.038699 0.673702 0.996189
v -0.195091 0.673702 0.980785
v -0.382684 0.673702 0.923879
v -0.555571 0.673702 0.831469
v -0.707107 0.673702 0.707106
v -0.831470 0.673702 0.555570
v -0.923880 0.673702 0.382683
v -0.980785 0.673702 0.195089
v -1.000000 0.673702 -0.000001
v -0.980785 0.673702 -0.195091
v -0.923879 0.673702 -0.382684
v -0.831469 0.673702 -0.555571
v -0.707106 0.673702 -0.707108
v -0.555569 0.673702 -0.831470
v -0.382682 0.673702 -0.923880
v -0.195089 0.673702 -0.980786
v -0.038699 0.673702 0.924092
v 0.038969 0.673702 0.924092
v 0.038969 0.673702 0.996162
v 0.038969 0.673702 -0.926444
v -0.038699 0.673702 -0.926444
v -0.038699 0.673702 -0.996189
vt 0.448322 0.500000
vt 0.544293 0.500000
vt 0.544280 0.491821
vt 0.568265 0.439832
vt 0.558048 0.283771
vt 0.448322 0.306726
vt 0.448322 0.750000
vt 0.544292 0.750000
vt 0.544308 0.624564
vt 0.448322 0.943202
vt 0.558048 0.966157
vt 0.568265 0.810096
vt 0.544280 0.758107
vt 0.448322 0.500000
vt 0.544283 0.500000
vt 0.544280 0.498196
vt 0.568265 0.446207
vt 0.558048 0.290146
vt 0.448322 0.313101
vt 0.448322 0.750000
vt 0.544283 0.750000
vt 0.544298 0.625435
vt 0.448322 0.936970
vt 0.558048 0.959925
vt 0.568265 0.803864
vt 0.544280 0.751876
vt 0.292486 0.463591
vt 0.333339 0.451198
vt 0.333560 0.451732
vt 0.292599 0.464158
vt 0.370989 0.431074
vt 0.371311 0.431554
vt 0.403990 0.403990
vt 0.404399 0.404399
vt 0.431074 0.370989
vt 0.431554 0.371311
vt 0.451198 0.333339
vt 0.451732 0.333560
vt 0.463591 0.292486
vt 0.464158 0.292599
vt 0.467775 0.250000
vt 0.468354 0.250000
vt 0.463591 0.207514
vt 0.464158 0.207401
vt 0.451198 0.166661
vt 0.451732 0.166440
vt 0.431074 0.129010
vt 0.431554 0.128689
vt 0.403990 0.096010
vt 0.404399 0.095601
vt 0.370990 0.068926
vt 0.371311 0.068446
vt 0.333339 0.048802
vt 0.333560 0.048268
vt 0.292486 0.036409
vt 0.292599 0.035842
vt 0.259190 0.033130
vt 0.259043 0.032537
vt 0.207514 0.036409
vt 0.166661 0.048802
vt 0.166440 0.048268
vt 0.207401 0.035842
vt 0.129010 0.068926
vt 0.128689 0.068446
vt 0.096010 0.096010
vt 0.095601 0.095601
vt 0.068926 0.129011
vt 0.068446 0.128689
vt 0.048802 0.166661
vt 0.048268 0.166440
vt 0.036409 0.207514
vt 0.035842 0.207402
vt 0.032225 0.250000
vt 0.031647 0.250000
vt 0.036409 0.292486
vt 0.035842 0.292599
vt 0.048802 0.333339
vt 0.048268 0.333560
vt 0.068927 0.370990
vt 0.068446 0.371311
vt 0.096010 0.403991
vt 0.095601 0.404399
vt 0.129011 0.431074
vt 0.128689 0.431555
vt 0.166661 0.451198
vt 0.166440 0.451732
vt 0.207515 0.463591
vt 0.207402 0.464158
vt 0.240874 0.466876
vt 0.241020 0.467469
vt 0.250000 0.462913
vt 0.291537 0.458822
vt 0.259190 0.466870
vt 0.259192 0.466754
vt 0.250000 0.467000
vt 0.331478 0.446706
vt 0.368288 0.427031
vt 0.400552 0.400552
vt 0.427031 0.368288
vt 0.446706 0.331478
vt 0.458822 0.291537
vt 0.462913 0.250000
vt 0.458822 0.208463
vt 0.446706 0.168522
vt 0.427031 0.131712
vt 0.400552 0.099448
vt 0.368288 0.072969
vt 0.331478 0.053294
vt 0.291537 0.041178
vt 0.250000 0.037087
vt 0.250000 0.033404
vt 0.259198 0.033650
vt 0.208463 0.041178
vt 0.240874 0.033123
vt 0.240865 0.033649
vt 0.168522 0.053294
vt 0.131712 0.072969
vt 0.099448 0.099448
vt 0.072969 0.131712
vt 0.053294 0.168522
vt 0.041178 0.208463
vt 0.037087 0.250000
vt 0.041178 0.291538
vt 0.053294 0.331479
vt 0.072969 0.368288
vt 0.099448 0.400552
vt 0.131712 0.427031
vt 0.168522 0.446706
vt 0.208463 0.458822
vt 0.240872 0.466756
vt 0.250000 0.461991
vt 0.291357 0.457918
vt 0.331125 0.445854
vt 0.367776 0.426264
vt 0.399900 0.399900
vt 0.426264 0.367776
vt 0.445854 0.331125
vt 0.457918 0.291357
vt 0.461991 0.250000
vt 0.457918 0.208643
vt 0.445854 0.168874
vt 0.426264 0.132224
vt 0.399900 0.100100
vt 0.367776 0.073736
vt 0.331126 0.054146
vt 0.291357 0.042082
vt 0.250000 0.038009
vt 0.208642 0.042082
vt 0.168874 0.054146
vt 0.132224 0.073736
vt 0.100099 0.100100
vt 0.073736 0.132224
vt 0.054146 0.168875
vt 0.042082 0.208643
vt 0.038009 0.250000
vt 0.042082 0.291358
vt 0.054146 0.331126
vt 0.073736 0.367776
vt 0.100100 0.399901
vt 0.132224 0.426264
vt 0.168875 0.445854
vt 0.208643 0.457918
vt 0.250000 0.320137
vt 0.263683 0.318790
vt 0.263737 0.319063
vt 0.250000 0.320415
vt 0.276840 0.314798
vt 0.276947 0.315055
vt 0.288966 0.308316
vt 0.289121 0.308548
vt 0.299594 0.299594
vt 0.299791 0.299791
vt 0.308317 0.288966
vt 0.308548 0.289121
vt 0.314798 0.276840
vt 0.315056 0.276947
vt 0.318789 0.263683
vt 0.319063 0.263737
vt 0.320137 0.250000
vt 0.320416 0.250000
vt 0.318789 0.236317
vt 0.319063 0.236262
vt 0.314798 0.223160
vt 0.315056 0.223053
vt 0.308317 0.211034
vt 0.308548 0.210879
vt 0.299594 0.200405
vt 0.299791 0.200208
vt 0.288966 0.191683
vt 0.289121 0.191452
vt 0.276840 0.185202
vt 0.276947 0.184944
vt 0.263683 0.181211
vt 0.263737 0.180937
vt 0.250000 0.179863
vt 0.250000 0.179584
vt 0.236317 0.181211
vt 0.236262 0.180937
vt 0.223160 0.185201
vt 0.223053 0.184944
vt 0.211034 0.191683
vt 0.210879 0.191451
vt 0.200406 0.200406
vt 0.200209 0.200209
vt 0.191683 0.211034
vt 0.191451 0.210879
vt 0.185202 0.223160
vt 0.184944 0.223053
vt 0.181211 0.236317
vt 0.180937 0.236263
vt 0.179863 0.250000
vt 0.179585 0.250000
vt 0.181211 0.263683
vt 0.180937 0.263738
vt 0.185202 0.276841
vt 0.184944 0.276947
vt 0.191683 0.288966
vt 0.191451 0.289121
vt 0.200406 0.299594
vt 0.200209 0.299791
vt 0.211034 0.308317
vt 0.210879 0.308549
vt 0.223160 0.314798
vt 0.223053 0.315056
vt 0.236317 0.318790
vt 0.236263 0.319063
vt 0.250000 0.315045
vt 0.262690 0.313796
vt 0.274892 0.310094
vt 0.286137 0.304083
vt 0.295994 0.295994
vt 0.304083 0.286137
vt 0.310094 0.274892
vt 0.313795 0.262690
vt 0.315045 0.250000
vt 0.313795 0.237310
vt 0.310094 0.225108
vt 0.304083 0.213863
vt 0.295994 0.204006
vt 0.286137 0.195917
vt 0.274892 0.189906
vt 0.262690 0.186205
vt 0.250000 0.184955
vt 0.237310 0.186204
vt 0.225108 0.189906
vt 0.213863 0.195917
vt 0.204006 0.204006
vt 0.195917 0.213863
vt 0.189906 0.225108
vt 0.186205 0.237310
vt 0.184955 0.250000
vt 0.186205 0.262690
vt 0.189906 0.274892
vt 0.195917 0.286137
vt 0.204006 0.295994
vt 0.213863 0.304083
vt 0.225108 0.310094
vt 0.237310 0.313796
vt 0.241020 0.032531
vt 0.259043 0.467463
vt 0.968750 0.500000
vt 0.968750 1.000000
vt 0.937500 1.000000
vt 0.937500 0.500000
vt 0.906250 1.000000
vt 0.906250 0.500000
vt 0.875000 1.000000
vt 0.875000 0.500000
vt 0.843750 1.000000
vt 0.843750 0.500000
vt 0.812500 1.000000
vt 0.812500 0.500000
vt 0.781250 1.000000
vt 0.781250 0.500000
vt 0.750000 1.000000
vt 0.750000 0.500000
vt 0.718750 1.000000
vt 0.718750 0.500000
vt 0.687500 1.000000
vt 0.687500 0.500000
vt 0.656250 1.000000
vt 0.656250 0.500000
vt 0.625000 1.000000
vt 0.625000 0.500000
vt 0.593750 1.000000
vt 0.593750 0.500000
vt 0.562500 1.000000
vt 0.562500 0.500000
vt 0.531250 1.000000
vt 0.531250 0.500000
vt 0.506242 1.000000
vt 0.506242 0.500000
vt 0.468750 0.500000
vt 0.468750 1.000000
vt 0.437500 1.000000
vt 0.437500 0.500000
vt 0.406250 1.000000
vt 0.406250 0.500000
vt 0.375000 1.000000
vt 0.375000 0.500000
vt 0.343750 1.000000
vt 0.343750 0.500000
vt 0.312500 1.000000
vt 0.312500 0.500000
vt 0.281250 1.000000
vt 0.281250 0.500000
vt 0.250000 1.000000
vt 0.250000 0.500000
vt 0.218750 1.000000
vt 0.218750 0.500000
vt 0.187500 1.000000
vt 0.187500 0.500000
vt 0.156250 1.000000
vt 0.156250 0.500000
vt 0.125000 1.000000
vt 0.125000 0.500000
vt 0.093750 1.000000
vt 0.093750 0.500000
vt 0.062500 1.000000
vt 0.062500 0.500000
vt 0.262690 0.313796
vt 0.250000 0.315045
vt 0.237310 0.313796
vt 0.225108 0.310094
vt 0.213863 0.304083
vt 0.204006 0.295994
vt 0.195917 0.286137
vt 0.189906 0.274892
vt 0.186205 0.262690
vt 0.184955 0.250000
vt 0.186205 0.237310
vt 0.189906 0.225108
vt 0.195917 0.213863
vt 0.204006 0.204006
vt 0.213863 0.195917
vt 0.225108 0.189906
vt 0.237310 0.186204
vt 0.250000 0.184955
vt 0.262690 0.186205
vt 0.274892 0.189906
vt 0.286137 0.195917
vt 0.295994 0.204006
vt 0.304083 0.213863
vt 0.310094 0.225108
vt 0.313795 0.237310
vt 0.315045 0.250000
vt 0.313795 0.262690
vt 0.310094 0.274892
vt 0.304083 0.286137
vt 0.295994 0.295994
vt 0.286137 0.304083
vt 0.274892 0.310094
vt 0.031250 1.000000
vt 0.031250 0.500000
vt 0.006199 1.000000
vt 0.006199 0.500000
vt 0.341844 0.471731
vt 0.296822 0.485388
vt 0.383337 0.449553
vt 0.419706 0.419706
vt 0.449553 0.383337
vt 0.471731 0.341844
vt 0.485388 0.296822
vt 0.490000 0.250000
vt 0.485388 0.203178
vt 0.471731 0.158156
vt 0.449553 0.116663
vt 0.419706 0.080294
vt 0.383337 0.050447
vt 0.341844 0.028269
vt 0.296822 0.014612
vt 0.259353 0.010921
vt 0.158156 0.028269
vt 0.203178 0.014612
vt 0.116663 0.050447
vt 0.080294 0.080294
vt 0.050447 0.116663
vt 0.028269 0.158156
vt 0.014611 0.203179
vt 0.010000 0.250000
vt 0.014612 0.296822
vt 0.028269 0.341844
vt 0.050447 0.383337
vt 0.080295 0.419706
vt 0.116663 0.449553
vt 0.158156 0.471731
vt 0.203179 0.485389
vt 0.240712 0.489085
vt 0.250000 0.315045
vt 0.262690 0.313796
vt 0.274892 0.310094
vt 0.286137 0.304083
vt 0.295994 0.295994
vt 0.304083 0.286137
vt 0.310094 0.274892
vt 0.313795 0.262690
vt 0.315045 0.250000
vt 0.313795 0.237310
vt 0.310094 0.225108
vt 0.304083 0.213863
vt 0.295994 0.204006
vt 0.286137 0.195917
vt 0.274892 0.189906
vt 0.262690 0.186205
vt 0.250000 0.184955
vt 0.237310 0.186204
vt 0.225108 0.189906
vt 0.213863 0.195917
vt 0.204006 0.204006
vt 0.195917 0.213863
vt 0.189906 0.225108
vt 0.186205 0.237310
vt 0.184955 0.250000
vt 0.186205 0.262690
vt 0.189906 0.274892
vt 0.195917 0.286137
vt 0.204006 0.295994
vt 0.213863 0.304083
vt 0.225108 0.310094
vt 0.237310 0.313796
vt 0.250000 0.315045
vt 0.237310 0.313796
vt 0.225108 0.310094
vt 0.213863 0.304083
vt 0.204006 0.295994
vt 0.195917 0.286137
vt 0.189906 0.274892
vt 0.186205 0.262690
vt 0.184955 0.250000
vt 0.186205 0.237310
vt 0.189906 0.225108
vt 0.195917 0.213863
vt 0.204006 0.204006
vt 0.213863 0.195917
vt 0.225108 0.189906
vt 0.237310 0.186204
vt 0.250000 0.184955
vt 0.262690 0.186205
vt 0.274892 0.189906
vt 0.286137 0.195917
vt 0.295994 0.204006
vt 0.304083 0.213863
vt 0.310094 0.225108
vt 0.313795 0.237310
vt 0.315045 0.250000
vt 0.313795 0.262690
vt 0.310094 0.274892
vt 0.304083 0.286137
vt 0.295994 0.295994
vt 0.286137 0.304083
vt 0.274892 0.310094
vt 0.262690 0.313796
vt 0.311066 0.237853
vt 0.312263 0.250000
vt 0.311066 0.262147
vt 0.307523 0.273827
vt 0.301769 0.284591
vt 0.294026 0.294026
vt 0.284591 0.301769
vt 0.273827 0.307523
vt 0.262147 0.311066
vt 0.250000 0.312263
vt 0.237853 0.311066
vt 0.226173 0.307523
vt 0.215409 0.301770
vt 0.205974 0.294026
vt 0.198231 0.284591
vt 0.192477 0.273827
vt 0.188934 0.262147
vt 0.187738 0.250000
vt 0.188934 0.237853
vt 0.192477 0.226173
vt 0.198230 0.215409
vt 0.205974 0.205974
vt 0.215409 0.198230
vt 0.226173 0.192477
vt 0.237853 0.188934
vt 0.250000 0.187737
vt 0.262147 0.188934
vt 0.273827 0.192477
vt 0.284591 0.198231
vt 0.294026 0.205974
vt 0.301769 0.215409
vt 0.307523 0.226173
vt 0.313795 0.262690
vt 0.315045 0.250000
vt 0.286137 0.195917
vt 0.274892 0.189906
vt 0.295994 0.295994
vt 0.304083 0.286137
vt 0.213863 0.195917
vt 0.204006 0.204006
vt 0.304083 0.213863
vt 0.295994 0.204006
vt 0.225108 0.189906
vt 0.213863 0.304083
vt 0.225108 0.310094
vt 0.310094 0.274892
vt 0.310094 0.225108
vt 0.195917 0.213863
vt 0.189906 0.225108
vt 0.237310 0.186204
vt 0.313795 0.237310
vt 0.186205 0.237310
vt 0.250000 0.315045
vt 0.262690 0.313796
vt 0.274892 0.310094
vt 0.262690 0.186205
vt 0.250000 0.184955
vt 0.186612 0.250000
vt 0.187830 0.262367
vt 0.191437 0.274258
vt 0.197295 0.285216
vt 0.205178 0.294822
vt 0.214784 0.302705
vt 0.225743 0.308563
vt 0.237634 0.312170
vt 0.250000 0.313388
vt 0.262366 0.312170
vt 0.274257 0.308563
vt 0.285216 0.302705
vt 0.294822 0.294822
vt 0.302705 0.285216
vt 0.308563 0.274257
vt 0.312170 0.262366
vt 0.313388 0.250000
vt 0.312170 0.237633
vt 0.308563 0.225743
vt 0.302705 0.214784
vt 0.294822 0.205178
vt 0.285216 0.197295
vt 0.274257 0.191437
vt 0.262366 0.187830
vt 0.250000 0.186612
vt 0.237634 0.187830
vt 0.225742 0.191437
vt 0.214784 0.197295
vt 0.205178 0.205178
vt 0.197295 0.214784
vt 0.191437 0.225743
vt 0.187830 0.237634
vt 0.286137 0.304083
vt 0.204006 0.295994
vt 0.184955 0.250000
vt 0.186205 0.262690
vt 0.189906 0.274892
vt 0.195917 0.286137
vt 0.237310 0.313796
vt 0.240712 0.010915
vt 0.493801 0.500000
vt 0.493801 1.000000
vt 0.728785 0.475925
vt 0.728785 0.460420
vt 0.771280 0.460420
vt 0.771280 0.475919
vt 0.794483 0.473634
vt 0.837258 0.460658
vt 0.876678 0.439588
vt 0.911231 0.411231
vt 0.939588 0.376678
vt 0.960658 0.337258
vt 0.973634 0.294484
vt 0.978015 0.250000
vt 0.973633 0.205516
vt 0.960658 0.162742
vt 0.939588 0.123322
vt 0.911231 0.088769
vt 0.876678 0.060412
vt 0.837258 0.039341
vt 0.794484 0.026366
vt 0.771280 0.024081
vt 0.771280 0.040145
vt 0.728785 0.040145
vt 0.728785 0.024075
vt 0.705517 0.026366
vt 0.662742 0.039342
vt 0.623322 0.060413
vt 0.588769 0.088769
vt 0.560412 0.123322
vt 0.539341 0.162743
vt 0.526366 0.205517
vt 0.521985 0.250000
vt 0.526366 0.294484
vt 0.539342 0.337258
vt 0.560413 0.376679
vt 0.588769 0.411231
vt 0.623322 0.439588
vt 0.662743 0.460658
vt 0.705517 0.473634
vt 0.259353 0.489079
vt 0.993758 0.500000
vt 0.993758 1.000000
vt 0.759353 0.489079
vt 0.796822 0.485388
vt 0.841844 0.471731
vt 0.883337 0.449553
vt 0.919706 0.419706
vt 0.949553 0.383337
vt 0.971731 0.341844
vt 0.985388 0.296822
vt 0.990000 0.250000
vt 0.985388 0.203178
vt 0.971731 0.158156
vt 0.949553 0.116663
vt 0.919706 0.080294
vt 0.883337 0.050447
vt 0.841844 0.028269
vt 0.796822 0.014612
vt 0.740712 0.010915
vt 0.703178 0.014612
vt 0.658156 0.028269
vt 0.616663 0.050447
vt 0.580294 0.080294
vt 0.550447 0.116663
vt 0.528269 0.158156
vt 0.514611 0.203179
vt 0.510000 0.250000
vt 0.514612 0.296822
vt 0.528269 0.341844
vt 0.550447 0.383337
vt 0.580295 0.419706
vt 0.616663 0.449553
vt 0.658156 0.471731
vt 0.703179 0.485389
vt 0.740712 0.028218
vt 0.759353 0.028218
vt 0.759353 0.010921
vt 0.759353 0.472347
vt 0.740712 0.472346
vt 0.740712 0.489085
vn 1.0000 -0.0000 -0.0000
vn 0.0000 0.0208 0.9998
vn -1.0000 0.0000 0.0000
vn 0.0000 0.0208 -0.9998
vn -0.1915 0.1914 0.9626
vn -0.3756 0.1914 0.9068
vn -0.5453 0.1914 0.8161
vn -0.6940 0.1914 0.6940
vn -0.8161 0.1914 0.5453
vn -0.9068 0.1914 0.3756
vn -0.9626 0.1914 0.1915
vn -0.9815 0.1914 0.0000
vn -0.9626 0.1914 -0.1915
vn -0.9068 0.1914 -0.3756
vn -0.8161 0.1914 -0.5453
vn -0.6940 0.1914 -0.6940
vn -0.5453 0.1914 -0.8161
vn -0.3756 0.1914 -0.9068
vn -0.1915 0.1914 -0.9626
vn -0.0962 0.1905 -0.9770
vn 0.1915 0.1914 -0.9626
vn 0.3756 0.1914 -0.9068
vn 0.5453 0.1914 -0.8161
vn 0.6940 0.1914 -0.6940
vn 0.8161 0.1914 -0.5453
vn 0.9068 0.1914 -0.3756
vn 0.9626 0.1914 -0.1915
vn 0.9815 0.1914 0.0000
vn 0.9626 0.1914 0.1915
vn 0.9068 0.1914 0.3756
vn 0.8161 0.1914 0.5453
vn 0.6940 0.1914 0.6940
vn 0.5453 0.1914 0.8161
vn 0.3756 0.1914 0.9068
vn 0.1915 0.1914 0.9626
vn 0.0962 0.1905 0.9770
vn 0.0000 0.9999 -0.0149
vn 0.0029 0.9999 -0.0147
vn 0.0015 0.9999 -0.0150
vn 0.0057 0.9999 -0.0138
vn 0.0083 0.9999 -0.0124
vn 0.0106 0.9999 -0.0106
vn 0.0124 0.9999 -0.0083
vn 0.0138 0.9999 -0.0057
vn 0.0147 0.9999 -0.0029
vn 0.0149 0.9999 0.0000
vn 0.0147 0.9999 0.0029
vn 0.0138 0.9999 0.0057
vn 0.0124 0.9999 0.0083
vn 0.0106 0.9999 0.0106
vn 0.0083 0.9999 0.0124
vn 0.0057 0.9999 0.0138
vn 0.0029 0.9999 0.0147
vn -0.0000 0.9999 0.0149
vn 0.0015 0.9999 0.0149
vn -0.0029 0.9999 0.0147
vn -0.0015 0.9999 0.0149
vn -0.0057 0.9999 0.0138
vn -0.0083 0.9999 0.0124
vn -0.0106 0.9999 0.0106
vn -0.0124 0.9999 0.0083
vn -0.0138 0.9999 0.0057
vn -0.0147 0.9999 0.0029
vn -0.0149 0.9999 -0.0000
vn -0.0147 0.9999 -0.0029
vn -0.0138 0.9999 -0.0057
vn -0.0124 0.9999 -0.0083
vn -0.0106 0.9999 -0.0106
vn -0.0083 0.9999 -0.0124
vn -0.0057 0.9999 -0.0138
vn -0.0029 0.9999 -0.0147
vn -0.0015 0.9999 -0.0149
vn 0.0000 -0.0485 -0.9988
vn 0.1949 -0.0485 -0.9796
vn 0.3822 -0.0485 -0.9228
vn 0.5549 -0.0485 -0.8305
vn 0.7063 -0.0485 -0.7063
vn 0.8305 -0.0485 -0.5549
vn 0.9228 -0.0485 -0.3822
vn 0.9796 -0.0485 -0.1949
vn 0.9988 -0.0485 -0.0000
vn 0.9796 -0.0485 0.1949
vn 0.9228 -0.0485 0.3822
vn 0.8305 -0.0485 0.5549
vn 0.7063 -0.0485 0.7063
vn 0.5549 -0.0485 0.8305
vn 0.3822 -0.0485 0.9228
vn 0.1949 -0.0485 0.9796
vn -0.0000 -0.0485 0.9988
vn -0.1949 -0.0485 0.9796
vn -0.3822 -0.0485 0.9228
vn -0.5549 -0.0485 0.8305
vn -0.7063 -0.0485 0.7063
vn -0.8305 -0.0485 0.5549
vn -0.9228 -0.0485 0.3822
vn -0.9796 -0.0485 0.1949
vn -0.9988 -0.0485 -0.0000
vn -0.9796 -0.0485 -0.1949
vn -0.9228 -0.0485 -0.3822
vn -0.8305 -0.0485 -0.5549
vn -0.7063 -0.0485 -0.7063
vn -0.5549 -0.0485 -0.8305
vn -0.3822 -0.0485 -0.9228
vn -0.1949 -0.0485 -0.9796
vn -0.0000 0.0135 0.9999
vn -0.1951 0.0135 0.9807
vn -0.3826 0.0135 0.9238
vn -0.5555 0.0135 0.8314
vn -0.7070 0.0135 0.7070
vn -0.8314 0.0135 0.5555
vn -0.9238 0.0135 0.3826
vn -0.9807 0.0135 0.1951
vn -0.9999 0.0135 0.0000
vn -0.9807 0.0135 -0.1951
vn -0.9238 0.0135 -0.3826
vn -0.8314 0.0135 -0.5555
vn -0.7070 0.0135 -0.7070
vn -0.5555 0.0135 -0.8314
vn -0.3826 0.0135 -0.9238
vn -0.1951 0.0135 -0.9807
vn 0.0000 0.0135 -0.9999
vn 0.1951 0.0135 -0.9807
vn 0.3826 0.0135 -0.9238
vn 0.5555 0.0135 -0.8314
vn 0.7070 0.0135 -0.7070
vn 0.8314 0.0135 -0.5555
vn 0.9238 0.0135 -0.3826
vn 0.9807 0.0135 -0.1951
vn 0.9999 0.0135 0.0000
vn 0.9807 0.0135 0.1951
vn 0.9238 0.0135 0.3826
vn 0.8314 0.0135 0.5555
vn 0.7070 0.0135 0.7070
vn 0.5555 0.0135 0.8314
vn 0.3826 0.0135 0.9238
vn 0.1951 0.0135 0.9807
vn 0.0000 0.9989 -0.0476
vn 0.0093 0.9989 -0.0466
vn 0.0182 0.9989 -0.0439
vn 0.0264 0.9989 -0.0395
vn 0.0336 0.9989 -0.0336
vn 0.0395 0.9989 -0.0264
vn 0.0439 0.9989 -0.0182
vn 0.0466 0.9989 -0.0093
vn 0.0476 0.9989 0.0000
vn 0.0466 0.9989 0.0093
vn 0.0439 0.9989 0.0182
vn 0.0395 0.9989 0.0264
vn 0.0336 0.9989 0.0336
vn 0.0264 0.9989 0.0395
vn 0.0182 0.9989 0.0439
vn 0.0093 0.9989 0.0466
vn -0.0000 0.9989 0.0476
vn -0.0093 0.9989 0.0466
vn -0.0182 0.9989 0.0439
vn -0.0264 0.9989 0.0395
vn -0.0336 0.9989 0.0336
vn -0.0395 0.9989 0.0264
vn -0.0439 0.9989 0.0182
vn -0.0466 0.9989 0.0093
vn -0.0476 0.9989 -0.0000
vn -0.0466 0.9989 -0.0093
vn -0.0439 0.9989 -0.0182
vn -0.0395 0.9989 -0.0264
vn -0.0336 0.9989 -0.0336
vn -0.0264 0.9989 -0.0395
vn -0.0182 0.9989 -0.0439
vn -0.0093 0.9989 -0.0466
vn 0.0962 0.1905 -0.9770
vn -0.0962 0.1905 0.9770
vn 0.1951 0.0000 -0.9808
vn 0.3827 0.0000 -0.9239
vn 0.5556 0.0000 -0.8315
vn 0.7071 0.0000 -0.7071
vn 0.8315 0.0000 -0.5556
vn 0.9239 0.0000 -0.3827
vn 0.9808 0.0000 -0.1951
vn 0.9808 0.0000 0.1951
vn 0.9239 0.0000 0.3827
vn 0.8315 0.0000 0.5556
vn 0.7071 0.0000 0.7071
vn 0.5556 0.0000 0.8315
vn 0.3827 0.0000 0.9239
vn 0.1951 0.0000 0.9808
vn 0.0980 0.0000 0.9952
vn -0.1951 0.0000 0.9808
vn -0.3827 0.0000 0.9239
vn -0.5556 0.0000 0.8315
vn -0.7071 0.0000 0.7071
vn -0.8315 0.0000 0.5556
vn -0.9239 0.0000 0.3827
vn -0.9808 0.0000 0.1951
vn -0.9808 0.0000 -0.1951
vn -0.9239 0.0000 -0.3827
vn -0.8315 0.0000 -0.5556
vn -0.7071 0.0000 -0.7071
vn -0.5556 0.0000 -0.8315
vn -0.3827 0.0000 -0.9239
vn -0.0000 1.0000 0.0000
vn -0.1951 0.0000 -0.9808
vn -0.0980 0.0000 -0.9952
vn 0.1061 0.8390 -0.5336
vn 0.2082 0.8390 -0.5027
vn 0.3023 0.8390 -0.4524
vn 0.3847 0.8390 -0.3847
vn 0.4524 0.8390 -0.3023
vn 0.5027 0.8390 -0.2082
vn 0.5336 0.8390 -0.1061
vn 0.5441 0.8390 0.0000
vn 0.5336 0.8390 0.1061
vn 0.5027 0.8390 0.2082
vn 0.4524 0.8390 0.3023
vn 0.3847 0.8390 0.3847
vn 0.3023 0.8390 0.4524
vn 0.2082 0.8390 0.5027
vn 0.1061 0.8390 0.5336
vn 0.0535 0.8378 0.5433
vn -0.1061 0.8390 0.5336
vn -0.2082 0.8390 0.5027
vn -0.3023 0.8390 0.4524
vn -0.3847 0.8390 0.3847
vn -0.4524 0.8390 0.3023
vn -0.5027 0.8390 0.2082
vn -0.5336 0.8390 0.1061
vn -0.5441 0.8390 -0.0000
vn -0.5336 0.8390 -0.1061
vn -0.5027 0.8390 -0.2082
vn -0.4524 0.8390 -0.3023
vn -0.3847 0.8390 -0.3847
vn -0.3023 0.8390 -0.4524
vn -0.2082 0.8390 -0.5027
vn -0.1061 0.8390 -0.5336
vn -0.0535 0.8378 -0.5433
vn 0.0001 1.0000 -0.0024
vn 0.0007 1.0000 -0.0028
vn 0.0004 1.0000 -0.0026
vn -0.0001 1.0000 -0.0022
vn 0.0016 1.0000 -0.0033
vn 0.0011 1.0000 -0.0030
vn 0.0029 1.0000 -0.0038
vn 0.0021 1.0000 -0.0035
vn 0.0049 1.0000 -0.0043
vn 0.0036 1.0000 -0.0040
vn 0.0079 1.0000 -0.0045
vn 0.0058 1.0000 -0.0044
vn 0.0117 0.9999 -0.0039
vn 0.0091 0.9999 -0.0044
vn 0.0152 0.9999 -0.0022
vn 0.0133 0.9999 -0.0033
vn 0.0161 0.9999 -0.0000
vn 0.0152 0.9999 0.0022
vn 0.0133 0.9999 0.0033
vn 0.0117 0.9999 0.0039
vn 0.0091 0.9999 0.0044
vn 0.0079 1.0000 0.0045
vn 0.0058 1.0000 0.0044
vn 0.0049 1.0000 0.0043
vn 0.0036 1.0000 0.0040
vn 0.0029 1.0000 0.0038
vn 0.0021 1.0000 0.0035
vn 0.0016 1.0000 0.0033
vn 0.0011 1.0000 0.0030
vn 0.0007 1.0000 0.0028
vn 0.0004 1.0000 0.0026
vn 0.0001 1.0000 0.0024
vn -0.0001 1.0000 0.0022
vn -0.0003 1.0000 0.0020
vn -0.0004 1.0000 0.0019
vn -0.0006 1.0000 0.0017
vn -0.0007 1.0000 0.0015
vn -0.0008 1.0000 0.0013
vn -0.0009 1.0000 0.0012
vn -0.0010 1.0000 0.0010
vn -0.0011 1.0000 0.0008
vn -0.0011 1.0000 0.0007
vn -0.0012 1.0000 0.0005
vn -0.0012 1.0000 0.0002
vn -0.0012 1.0000 0.0000
vn -0.0012 1.0000 -0.0003
vn -0.0012 1.0000 -0.0002
vn -0.0012 1.0000 -0.0005
vn -0.0011 1.0000 -0.0008
vn -0.0011 1.0000 -0.0007
vn -0.0010 1.0000 -0.0010
vn -0.0008 1.0000 -0.0013
vn -0.0009 1.0000 -0.0012
vn -0.0006 1.0000 -0.0017
vn -0.0007 1.0000 -0.0015
vn -0.0003 1.0000 -0.0020
vn -0.0004 1.0000 -0.0019
vn 0.0000 -0.0061 -1.0000
vn 0.1951 -0.0061 -0.9808
vn 0.1934 -0.1301 -0.9724
vn 0.0000 -0.1301 -0.9915
vn 0.3827 -0.0061 -0.9239
vn 0.3794 -0.1301 -0.9160
vn 0.5556 -0.0061 -0.8315
vn 0.5508 -0.1301 -0.8244
vn 0.7071 -0.0061 -0.7071
vn 0.7011 -0.1301 -0.7011
vn 0.8315 -0.0061 -0.5556
vn 0.8244 -0.1301 -0.5508
vn 0.9239 -0.0061 -0.3827
vn 0.9160 -0.1301 -0.3794
vn 0.9808 -0.0061 -0.1951
vn 0.9724 -0.1301 -0.1934
vn 1.0000 -0.0061 -0.0000
vn 0.9915 -0.1301 -0.0000
vn 0.9808 -0.0061 0.1951
vn 0.9724 -0.1301 0.1934
vn 0.9239 -0.0061 0.3827
vn 0.9160 -0.1301 0.3794
vn 0.8315 -0.0061 0.5556
vn 0.8244 -0.1301 0.5508
vn 0.7071 -0.0061 0.7071
vn 0.7011 -0.1301 0.7011
vn 0.5556 -0.0061 0.8315
vn 0.5508 -0.1301 0.8244
vn 0.3827 -0.0061 0.9239
vn 0.3794 -0.1301 0.9160
vn 0.1951 -0.0061 0.9808
vn 0.1934 -0.1301 0.9724
vn -0.0000 -0.0061 1.0000
vn -0.0000 -0.1301 0.9915
vn -0.1951 -0.0061 0.9808
vn -0.1934 -0.1301 0.9724
vn -0.3827 -0.0061 0.9239
vn -0.3794 -0.1301 0.9160
vn -0.5556 -0.0061 0.8315
vn -0.5508 -0.1301 0.8244
vn -0.7071 -0.0061 0.7071
vn -0.7011 -0.1301 0.7011
vn -0.8315 -0.0061 0.5556
vn -0.8244 -0.1301 0.5508
vn -0.9239 -0.0061 0.3827
vn -0.9160 -0.1301 0.3794
vn -0.9808 -0.0061 0.1951
vn -0.9724 -0.1301 0.1934
vn -1.0000 -0.0061 -0.0000
vn -0.9915 -0.1301 -0.0000
vn -0.9808 -0.0061 -0.1951
vn -0.9724 -0.1301 -0.1934
vn -0.9239 -0.0061 -0.3827
vn -0.9160 -0.1301 -0.3794
vn -0.8315 -0.0061 -0.5556
vn -0.8244 -0.1301 -0.5508
vn -0.7071 -0.0061 -0.7071
vn -0.7011 -0.1301 -0.7011
vn -0.5556 -0.0061 -0.8315
vn -0.5508 -0.1301 -0.8244
vn -0.3827 -0.0061 -0.9239
vn -0.3794 -0.1301 -0.9160
vn -0.1951 -0.0061 -0.9808
vn -0.1934 -0.1301 -0.9724
vn -0.1937 0.1179 -0.9739
vn 0.0000 0.1179 -0.9930
vn -0.3800 0.1179 -0.9174
vn -0.5517 0.1179 -0.8257
vn -0.7022 0.1179 -0.7022
vn -0.8257 0.1179 -0.5517
vn -0.9174 0.1179 -0.3800
vn -0.9739 0.1179 -0.1937
vn -0.9930 0.1179 -0.0000
vn -0.9739 0.1179 0.1937
vn -0.9174 0.1179 0.3800
vn -0.8257 0.1179 0.5517
vn -0.7022 0.1179 0.7022
vn -0.5517 0.1179 0.8257
vn -0.3800 0.1179 0.9174
vn -0.1937 0.1179 0.9739
vn -0.0000 0.1179 0.9930
vn 0.1937 0.1179 0.9739
vn 0.3800 0.1179 0.9174
vn 0.5517 0.1179 0.8257
vn 0.7022 0.1179 0.7022
vn 0.8257 0.1179 0.5517
vn 0.9174 0.1179 0.3800
vn 0.9739 0.1179 0.1937
vn 0.9930 0.1179 -0.0000
vn 0.9739 0.1179 -0.1937
vn 0.9174 0.1179 -0.3800
vn 0.8257 0.1179 -0.5517
vn 0.7022 0.1179 -0.7022
vn 0.5517 0.1179 -0.8257
vn 0.3800 0.1179 -0.9174
vn 0.1937 0.1179 -0.9739
vn 0.0000 -1.0000 0.0000
vn -0.0535 0.8378 0.5433
vn -0.0980 0.0000 0.9952
vn 0.0535 0.8378 -0.5433
vn 0.0980 0.0000 -0.9952
vn 0.1022 -0.8518 -0.5138
vn 0.0515 -0.8507 -0.5232
vn 0.2005 -0.8518 -0.4840
vn 0.2910 -0.8518 -0.4356
vn 0.3704 -0.8518 -0.3704
vn 0.4356 -0.8518 -0.2910
vn 0.4840 -0.8518 -0.2005
vn 0.5138 -0.8518 -0.1022
vn 0.5239 -0.8518 -0.0000
vn 0.5138 -0.8518 0.1022
vn 0.4840 -0.8518 0.2005
vn 0.4356 -0.8518 0.2910
vn 0.3704 -0.8518 0.3704
vn 0.2910 -0.8518 0.4356
vn 0.2005 -0.8518 0.4840
vn 0.1022 -0.8518 0.5138
vn -0.1022 -0.8518 0.5138
vn -0.0515 -0.8507 0.5232
vn -0.2005 -0.8518 0.4840
vn -0.2910 -0.8518 0.4356
vn -0.3704 -0.8518 0.3704
vn -0.4356 -0.8518 0.2910
vn -0.4840 -0.8518 0.2005
vn -0.5138 -0.8518 0.1022
vn -0.5239 -0.8518 -0.0000
vn -0.5138 -0.8518 -0.1022
vn -0.4840 -0.8518 -0.2005
vn -0.4356 -0.8518 -0.2910
vn -0.3704 -0.8518 -0.3704
vn -0.2910 -0.8518 -0.4356
vn -0.2005 -0.8518 -0.4840
vn -0.1022 -0.8518 -0.5138
vn 0.5257 -0.8507 0.0000
vn 0.0000 -0.8507 0.5257
vn -0.5257 -0.8507 0.0000
vn 0.0515 -0.8507 0.5232
vn 0.0000 -0.8507 -0.5257
vn -0.0515 -0.8507 -0.5232
usemtl Material.003
s off
f 467/1/1 413/2/1 411/3/1 412/4/1 409/5/1 451/6/1
f 468/7/2 415/8/2 416/9/2 413/2/2 467/1/2
f 415/8/3 468/7/3 469/10/3 418/11/3 420/12/3 421/13/3
f 470/14/3 427/15/3 425/16/3 424/17/3 422/18/3 435/19/3
f 471/20/4 428/21/4 429/22/4 427/15/4 470/14/4
f 428/21/1 471/20/1 472/23/1 431/24/1 434/25/1 433/26/1
s 1
f 123/27/5 124/28/6 94/29/6 93/30/5
f 124/28/6 125/31/7 95/32/7 94/29/6
f 125/31/7 126/33/8 96/34/8 95/32/7
f 126/33/8 127/35/9 97/36/9 96/34/8
f 127/35/9 128/37/10 98/38/10 97/36/9
f 128/37/10 129/39/11 99/40/11 98/38/10
f 129/39/11 130/41/12 100/42/12 99/40/11
f 130/41/12 131/43/13 101/44/13 100/42/12
f 131/43/13 132/45/14 102/46/14 101/44/13
f 132/45/14 133/47/15 103/48/15 102/46/14
f 133/47/15 134/49/16 104/50/16 103/48/15
f 134/49/16 135/51/17 105/52/17 104/50/16
f 135/51/17 136/53/18 106/54/18 105/52/17
f 136/53/18 137/55/19 107/56/19 106/54/18
f 137/55/19 421/57/20 420/58/20 107/56/19
f 138/59/21 139/60/22 109/61/22 108/62/21
f 139/60/22 140/63/23 110/64/23 109/61/22
f 140/63/23 141/65/24 111/66/24 110/64/23
f 141/65/24 142/67/25 112/68/25 111/66/24
f 142/67/25 143/69/26 113/70/26 112/68/25
f 143/69/26 144/71/27 114/72/27 113/70/26
f 144/71/27 145/73/28 115/74/28 114/72/27
f 145/73/28 146/75/29 116/76/29 115/74/28
f 146/75/29 147/77/30 117/78/30 116/76/29
f 147/77/30 148/79/31 118/80/31 117/78/30
f 148/79/31 149/81/32 119/82/32 118/80/31
f 149/81/32 150/83/33 120/84/33 119/82/32
f 150/83/33 151/85/34 121/86/34 120/84/33
f 151/85/34 152/87/35 122/88/35 121/86/34
f 152/87/35 433/89/36 434/90/36 122/88/35
f 154/91/37 153/92/38 123/27/38 425/93/39 427/94/39 429/95/37
f 153/92/38 155/96/40 124/28/40 123/27/38
f 155/96/40 156/97/41 125/31/41 124/28/40
f 156/97/41 157/98/42 126/33/42 125/31/41
f 157/98/42 158/99/43 127/35/43 126/33/42
f 158/99/43 159/100/44 128/37/44 127/35/43
f 159/100/44 160/101/45 129/39/45 128/37/44
f 160/101/45 161/102/46 130/41/46 129/39/45
f 161/102/46 162/103/47 131/43/47 130/41/46
f 162/103/47 163/104/48 132/45/48 131/43/47
f 163/104/48 164/105/49 133/47/49 132/45/48
f 164/105/49 165/106/50 134/49/50 133/47/49
f 165/106/50 166/107/51 135/51/51 134/49/50
f 166/107/51 167/108/52 136/53/52 135/51/51
f 167/108/52 168/109/53 137/55/53 136/53/52
f 168/109/53 169/110/54 416/111/54 415/112/55 421/57/55 137/55/53
f 169/110/54 170/113/56 138/59/56 411/114/57 413/115/57 416/111/54
f 170/113/56 171/116/58 139/60/58 138/59/56
f 171/116/58 172/117/59 140/63/59 139/60/58
f 172/117/59 173/118/60 141/65/60 140/63/59
f 173/118/60 174/119/61 142/67/61 141/65/60
f 174/119/61 175/120/62 143/69/62 142/67/61
f 175/120/62 176/121/63 144/71/63 143/69/62
f 176/121/63 177/122/64 145/73/64 144/71/63
f 177/122/64 178/123/65 146/75/65 145/73/64
f 178/123/65 179/124/66 147/77/66 146/75/65
f 179/124/66 180/125/67 148/79/67 147/77/66
f 180/125/67 181/126/68 149/81/68 148/79/67
f 181/126/68 182/127/69 150/83/69 149/81/68
f 182/127/69 183/128/70 151/85/70 150/83/69
f 183/128/70 184/129/71 152/87/71 151/85/70
f 184/129/71 154/91/37 429/95/37 428/130/72 433/89/72 152/87/71
f 186/131/73 185/132/74 153/92/74 154/91/73
f 185/132/74 187/133/75 155/96/75 153/92/74
f 187/133/75 188/134/76 156/97/76 155/96/75
f 188/134/76 189/135/77 157/98/77 156/97/76
f 189/135/77 190/136/78 158/99/78 157/98/77
f 190/136/78 191/137/79 159/100/79 158/99/78
f 191/137/79 192/138/80 160/101/80 159/100/79
f 192/138/80 193/139/81 161/102/81 160/101/80
f 193/139/81 194/140/82 162/103/82 161/102/81
f 194/140/82 195/141/83 163/104/83 162/103/82
f 195/141/83 196/142/84 164/105/84 163/104/83
f 196/142/84 197/143/85 165/106/85 164/105/84
f 197/143/85 198/144/86 166/107/86 165/106/85
f 198/144/86 199/145/87 167/108/87 166/107/86
f 199/145/87 200/146/88 168/109/88 167/108/87
f 200/146/88 201/147/89 169/110/89 168/109/88
f 201/147/89 202/148/90 170/113/90 169/110/89
f 202/148/90 203/149/91 171/116/91 170/113/90
f 203/149/91 204/150/92 172/117/92 171/116/91
f 204/150/92 205/151/93 173/118/93 172/117/92
f 205/151/93 206/152/94 174/119/94 173/118/93
f 206/152/94 207/153/95 175/120/95 174/119/94
f 207/153/95 208/154/96 176/121/96 175/120/95
f 208/154/96 209/155/97 177/122/97 176/121/96
f 209/155/97 210/156/98 178/123/98 177/122/97
f 210/156/98 211/157/99 179/124/99 178/123/98
f 211/157/99 212/158/100 180/125/100 179/124/99
f 212/158/100 213/159/101 181/126/101 180/125/100
f 213/159/101 214/160/102 182/127/102 181/126/101
f 214/160/102 215/161/103 183/128/103 182/127/102
f 215/161/103 216/162/104 184/129/104 183/128/103
f 216/162/104 186/131/73 154/91/73 184/129/104
f 250/163/105 249/164/106 217/165/106 218/166/105
f 249/164/106 251/167/107 219/168/107 217/165/106
f 251/167/107 252/169/108 220/170/108 219/168/107
f 252/169/108 253/171/109 221/172/109 220/170/108
f 253/171/109 254/173/110 222/174/110 221/172/109
f 254/173/110 255/175/111 223/176/111 222/174/110
f 255/175/111 256/177/112 224/178/112 223/176/111
f 256/177/112 257/179/113 225/180/113 224/178/112
f 257/179/113 258/181/114 226/182/114 225/180/113
f 258/181/114 259/183/115 227/184/115 226/182/114
f 259/183/115 260/185/116 228/186/116 227/184/115
f 260/185/116 261/187/117 229/188/117 228/186/116
f 261/187/117 262/189/118 230/190/118 229/188/117
f 262/189/118 263/191/119 231/192/119 230/190/118
f 263/191/119 264/193/120 232/194/120 231/192/119
f 264/193/120 265/195/121 233/196/121 232/194/120
f 265/195/121 266/197/122 234/198/122 233/196/121
f 266/197/122 267/199/123 235/200/123 234/198/122
f 267/199/123 268/201/124 236/202/124 235/200/123
f 268/201/124 269/203/125 237/204/125 236/202/124
f 269/203/125 270/205/126 238/206/126 237/204/125
f 270/205/126 271/207/127 239/208/127 238/206/126
f 271/207/127 272/209/128 240/210/128 239/208/127
f 272/209/128 273/211/129 241/212/129 240/210/128
f 273/211/129 274/213/130 242/214/130 241/212/129
f 274/213/130 275/215/131 243/216/131 242/214/130
f 275/215/131 276/217/132 244/218/132 243/216/131
f 276/217/132 277/219/133 245/220/133 244/218/132
f 277/219/133 278/221/134 246/222/134 245/220/133
f 278/221/134 279/223/135 247/224/135 246/222/134
f 279/223/135 280/225/136 248/226/136 247/224/135
f 280/225/136 250/163/105 218/166/105 248/226/136
f 282/227/137 281/228/138 249/164/138 250/163/137
f 281/228/138 283/229/139 251/167/139 249/164/138
f 283/229/139 284/230/140 252/169/140 251/167/139
f 284/230/140 285/231/141 253/171/141 252/169/140
f 285/231/141 286/232/142 254/173/142 253/171/141
f 286/232/142 287/233/143 255/175/143 254/173/142
f 287/233/143 288/234/144 256/177/144 255/175/143
f 288/234/144 289/235/145 257/179/145 256/177/144
f 289/235/145 290/236/146 258/181/146 257/179/145
f 290/236/146 291/237/147 259/183/147 258/181/146
f 291/237/147 292/238/148 260/185/148 259/183/147
f 292/238/148 293/239/149 261/187/149 260/185/148
f 293/239/149 294/240/150 262/189/150 261/187/149
f 294/240/150 295/241/151 263/191/151 262/189/150
f 295/241/151 296/242/152 264/193/152 263/191/151
f 296/242/152 297/243/153 265/195/153 264/193/152
f 297/243/153 298/244/154 266/197/154 265/195/153
f 298/244/154 299/245/155 267/199/155 266/197/154
f 299/245/155 300/246/156 268/201/156 267/199/155
f 300/246/156 301/247/157 269/203/157 268/201/156
f 301/247/157 302/248/158 270/205/158 269/203/157
f 302/248/158 303/249/159 271/207/159 270/205/158
f 303/249/159 304/250/160 272/209/160 271/207/159
f 304/250/160 305/251/161 273/211/161 272/209/160
f 305/251/161 306/252/162 274/213/162 273/211/161
f 306/252/162 307/253/163 275/215/163 274/213/162
f 307/253/163 308/254/164 276/217/164 275/215/163
f 308/254/164 309/255/165 277/219/165 276/217/164
f 309/255/165 310/256/166 278/221/166 277/219/165
f 310/256/166 311/257/167 279/223/167 278/221/166
f 311/257/167 312/258/168 280/225/168 279/223/167
f 312/258/168 282/227/137 250/163/137 280/225/168
f 412/259/169 411/114/169 138/59/21 108/62/21
f 424/260/170 425/93/170 123/27/5 93/30/5
usemtl Material.002
f 436/261/171 63/262/171 64/263/172 437/264/172
f 437/264/172 64/263/172 65/265/173 438/266/173
f 438/266/173 65/265/173 66/267/174 439/268/174
f 439/268/174 66/267/174 67/269/175 440/270/175
f 440/270/175 67/269/175 68/271/176 441/272/176
f 441/272/176 68/271/176 69/273/177 442/274/177
f 442/274/177 69/273/177 70/275/1 443/276/1
f 443/276/1 70/275/1 71/277/178 444/278/178
f 444/278/178 71/277/178 72/279/179 445/280/179
f 445/280/179 72/279/179 73/281/180 446/282/180
f 446/282/180 73/281/180 74/283/181 447/284/181
f 447/284/181 74/283/181 75/285/182 448/286/182
f 448/286/182 75/285/182 76/287/183 449/288/183
f 449/288/183 76/287/183 77/289/184 450/290/184
f 450/290/184 77/289/184 418/291/185 469/292/185
f 452/293/186 78/294/186 79/295/187 453/296/187
f 453/296/187 79/295/187 80/297/188 454/298/188
f 454/298/188 80/297/188 81/299/189 455/300/189
f 455/300/189 81/299/189 82/301/190 456/302/190
f 456/302/190 82/301/190 83/303/191 457/304/191
f 457/304/191 83/303/191 84/305/192 458/306/192
f 458/306/192 84/305/192 85/307/3 459/308/3
f 459/308/3 85/307/3 86/309/193 460/310/193
f 460/310/193 86/309/193 87/311/194 461/312/194
f 461/312/194 87/311/194 88/313/195 462/314/195
f 462/314/195 88/313/195 89/315/196 463/316/196
f 463/316/196 89/315/196 90/317/197 464/318/197
f 464/318/197 90/317/197 91/319/198 465/320/198
f 3/321/199 1/322/199 62/323/199 60/324/199 58/325/199 56/326/199 54/327/199 52/328/199 50/329/199 48/330/199 46/331/199 44/332/199 42/333/199 40/334/199 38/335/199 36/336/199 34/337/199 32/338/199 31/339/199 29/340/199 27/341/199 25/342/199 23/343/199 21/344/199 19/345/199 17/346/199 15/347/199 13/348/199 11/349/199 9/350/199 7/351/199 5/352/199
f 465/320/198 91/319/198 92/353/200 466/354/200
f 466/354/200 92/353/200 431/355/201 472/356/201
f 93/30/202 94/29/203 64/357/203 63/358/202
f 94/29/203 95/32/204 65/359/204 64/357/203
f 95/32/204 96/34/205 66/360/205 65/359/204
f 96/34/205 97/36/206 67/361/206 66/360/205
f 97/36/206 98/38/207 68/362/207 67/361/206
f 98/38/207 99/40/208 69/363/208 68/362/207
f 99/40/208 100/42/209 70/364/209 69/363/208
f 100/42/209 101/44/210 71/365/210 70/364/209
f 101/44/210 102/46/211 72/366/211 71/365/210
f 102/46/211 103/48/212 73/367/212 72/366/211
f 103/48/212 104/50/213 74/368/213 73/367/212
f 104/50/213 105/52/214 75/369/214 74/368/213
f 105/52/214 106/54/215 76/370/215 75/369/214
f 106/54/215 107/56/216 77/371/216 76/370/215
f 107/56/216 420/58/217 418/372/217 77/371/216
f 108/62/218 109/61/219 79/373/219 78/374/218
f 109/61/219 110/64/220 80/375/220 79/373/219
f 110/64/220 111/66/221 81/376/221 80/375/220
f 111/66/221 112/68/222 82/377/222 81/376/221
f 112/68/222 113/70/223 83/378/223 82/377/222
f 113/70/223 114/72/224 84/379/224 83/378/223
f 114/72/224 115/74/225 85/380/225 84/379/224
f 115/74/225 116/76/226 86/381/226 85/380/225
f 116/76/226 117/78/227 87/382/227 86/381/226
f 117/78/227 118/80/228 88/383/228 87/382/227
f 118/80/228 119/82/229 89/384/229 88/383/228
f 119/82/229 120/84/230 90/385/230 89/384/229
f 120/84/230 121/86/231 91/386/231 90/385/230
f 121/86/231 122/88/232 92/387/232 91/386/231
f 122/88/232 434/90/233 431/388/233 92/387/232
f 218/166/234 217/165/235 185/132/236 186/131/237
f 217/165/235 219/168/238 187/133/239 185/132/236
f 219/168/238 220/170/240 188/134/241 187/133/239
f 220/170/240 221/172/242 189/135/243 188/134/241
f 221/172/242 222/174/244 190/136/245 189/135/243
f 222/174/244 223/176/246 191/137/247 190/136/245
f 223/176/246 224/178/248 192/138/249 191/137/247
f 224/178/248 225/180/250 193/139/250 192/138/249
f 225/180/250 226/182/251 194/140/252 193/139/250
f 226/182/251 227/184/253 195/141/254 194/140/252
f 227/184/253 228/186/255 196/142/256 195/141/254
f 228/186/255 229/188/257 197/143/258 196/142/256
f 229/188/257 230/190/259 198/144/260 197/143/258
f 230/190/259 231/192/261 199/145/262 198/144/260
f 231/192/261 232/194/263 200/146/264 199/145/262
f 232/194/263 233/196/265 201/147/266 200/146/264
f 233/196/265 234/198/267 202/148/268 201/147/266
f 234/198/267 235/200/269 203/149/270 202/148/268
f 235/200/269 236/202/271 204/150/272 203/149/270
f 236/202/271 237/204/273 205/151/273 204/150/272
f 237/204/273 238/206/274 206/152/275 205/151/273
f 238/206/274 239/208/276 207/153/276 206/152/275
f 239/208/276 240/210/277 208/154/277 207/153/276
f 240/210/277 241/212/278 209/155/278 208/154/277
f 241/212/278 242/214/279 210/156/280 209/155/278
f 242/214/279 243/216/281 211/157/281 210/156/280
f 243/216/281 244/218/282 212/158/283 211/157/281
f 244/218/282 245/220/284 213/159/284 212/158/283
f 245/220/284 246/222/285 214/160/286 213/159/284
f 246/222/285 247/224/287 215/161/288 214/160/286
f 247/224/287 248/226/289 216/162/290 215/161/288
f 248/226/289 218/166/234 186/131/237 216/162/290
f 313/389/291 314/390/292 281/228/293 282/227/294
f 314/390/292 315/391/295 283/229/296 281/228/293
f 315/391/295 316/392/297 284/230/298 283/229/296
f 316/392/297 317/393/299 285/231/300 284/230/298
f 317/393/299 318/394/301 286/232/302 285/231/300
f 318/394/301 319/395/303 287/233/304 286/232/302
f 319/395/303 320/396/305 288/234/306 287/233/304
f 320/396/305 321/397/307 289/235/308 288/234/306
f 321/397/307 322/398/309 290/236/310 289/235/308
f 322/398/309 323/399/311 291/237/312 290/236/310
f 323/399/311 324/400/313 292/238/314 291/237/312
f 324/400/313 325/401/315 293/239/316 292/238/314
f 325/401/315 326/402/317 294/240/318 293/239/316
f 326/402/317 327/403/319 295/241/320 294/240/318
f 327/403/319 328/404/321 296/242/322 295/241/320
f 328/404/321 329/405/323 297/243/324 296/242/322
f 329/405/323 330/406/325 298/244/326 297/243/324
f 330/406/325 331/407/327 299/245/328 298/244/326
f 331/407/327 332/408/329 300/246/330 299/245/328
f 332/408/329 333/409/331 301/247/332 300/246/330
f 333/409/331 334/410/333 302/248/334 301/247/332
f 334/410/333 335/411/335 303/249/336 302/248/334
f 335/411/335 336/412/337 304/250/338 303/249/336
f 336/412/337 337/413/339 305/251/340 304/250/338
f 337/413/339 338/414/341 306/252/342 305/251/340
f 338/414/341 339/415/343 307/253/344 306/252/342
f 339/415/343 340/416/345 308/254/346 307/253/344
f 340/416/345 341/417/347 309/255/348 308/254/346
f 341/417/347 342/418/349 310/256/350 309/255/348
f 342/418/349 343/419/351 311/257/352 310/256/350
f 343/419/351 344/420/353 312/258/354 311/257/352
f 344/420/353 313/389/291 282/227/294 312/258/354
f 62/323/355 1/322/356 361/421/356 360/422/355
f 60/324/357 62/323/355 360/422/355 362/423/357
f 58/325/358 60/324/357 362/423/357 363/424/358
f 56/326/359 58/325/358 363/424/358 367/425/359
f 54/327/360 56/326/359 367/425/359 368/426/360
f 52/328/361 54/327/360 368/426/360 375/427/361
f 50/329/362 52/328/361 375/427/361 381/428/362
f 48/330/363 50/329/362 381/428/362 408/429/363
f 46/331/364 48/330/363 408/429/363 407/430/364
f 44/332/365 46/331/364 407/430/364 383/431/365
f 42/333/366 44/332/365 383/431/365 382/432/366
f 40/334/367 42/333/366 382/432/366 380/433/367
f 38/335/368 40/334/367 380/433/367 379/434/368
f 36/336/369 38/335/368 379/434/368 364/435/369
f 34/337/370 36/336/369 364/435/369 397/436/370
f 32/338/371 34/337/370 397/436/370 399/437/371
f 31/339/372 32/338/371 399/437/371 398/438/372
f 29/340/373 31/339/372 398/438/372 365/439/373
f 27/341/374 29/340/373 365/439/373 393/440/374
f 25/342/375 27/341/374 393/440/374 392/441/375
f 23/343/376 25/342/375 392/441/375 391/442/376
f 21/344/377 23/343/376 391/442/376 371/443/377
f 19/345/378 21/344/377 371/443/377 390/444/378
f 17/346/379 19/345/378 390/444/378 389/445/379
f 15/347/380 17/346/379 389/445/379 378/446/380
f 13/348/381 15/347/380 378/446/380 377/447/381
f 11/349/382 13/348/381 377/447/381 376/448/382
f 9/350/383 11/349/382 376/448/382 369/449/383
f 7/351/384 9/350/383 369/449/383 370/450/384
f 5/352/385 7/351/384 370/450/384 366/451/385
f 3/321/386 5/352/385 366/451/385 359/452/386
f 1/322/356 3/321/386 359/452/386 361/421/356
f 385/453/199 384/454/199 346/455/199 374/456/199 373/457/199 372/458/199 352/459/199 353/460/199 349/461/199 348/462/199 345/463/199 354/464/199 355/465/199 356/466/199 350/467/199 351/468/199 357/469/199 358/470/199 347/471/199 404/472/199 403/473/199 406/474/199 405/475/199 400/476/199 401/477/199 402/478/199 387/479/199 396/480/199 395/481/199 394/482/199 388/483/199 386/484/199
f 346/485/380 384/486/379 321/397/307 320/396/305
f 395/487/374 396/488/373 327/403/319 326/402/317
f 372/489/383 373/490/382 318/394/301 317/393/299
f 405/491/368 406/492/367 333/409/331 332/408/329
f 388/493/376 394/494/375 325/401/315 324/400/313
f 400/495/369 405/491/368 332/408/329 331/407/327
f 355/496/358 354/497/357 343/419/351 342/418/349
f 394/494/375 395/487/374 326/402/317 325/401/315
f 373/490/382 374/498/381 319/395/303 318/394/301
f 386/499/377 388/493/376 324/400/313 323/399/311
f 403/500/366 404/501/365 335/411/335 334/410/333
f 374/498/381 346/485/380 320/396/305 319/395/303
f 401/502/370 400/495/369 331/407/327 330/406/325
f 385/503/378 386/499/377 323/399/311 322/398/309
f 404/501/365 347/504/364 336/412/337 335/411/335
f 348/505/356 349/506/386 314/390/292 313/389/291
f 349/506/386 353/507/385 315/391/295 314/390/292
f 396/488/373 387/508/372 328/404/321 327/403/319
f 402/509/371 401/502/370 330/406/325 329/405/323
f 408/510/387 381/511/387 375/512/387 368/513/387 367/514/387 363/515/387 362/516/387 360/517/387 361/518/387 359/519/387 366/520/387 370/521/387 369/522/387 376/523/387 377/524/387 378/525/387 389/526/387 390/527/387 371/528/387 391/529/387 392/530/387 393/531/387 365/532/387 398/533/387 399/534/387 397/535/387 364/536/387 379/537/387 380/538/387 382/539/387 383/540/387 407/541/387
f 353/507/385 352/542/384 316/392/297 315/391/295
f 356/543/359 355/496/358 342/418/349 341/417/347
f 387/508/372 402/509/371 329/405/323 328/404/321
f 384/486/379 385/503/378 322/398/309 321/397/307
f 358/544/363 357/545/362 338/414/341 337/413/339
f 357/545/362 351/546/361 339/415/343 338/414/341
f 352/542/384 372/489/383 317/393/299 316/392/297
f 350/547/360 356/543/359 341/417/347 340/416/345
f 406/492/367 403/500/366 334/410/333 333/409/331
f 345/548/355 348/505/356 313/389/291 344/420/353
f 354/497/357 345/548/355 344/420/353 343/419/351
f 347/504/364 358/544/363 337/413/339 336/412/337
f 351/546/361 350/547/360 340/416/345 339/415/343
f 409/549/388 412/259/388 108/62/218 78/374/218
f 451/550/389 409/551/389 78/294/186 452/293/186
f 432/552/387 430/553/387 426/554/387 423/555/387 2/556/387 4/557/387 6/558/387 8/559/387 10/560/387 12/561/387 14/562/387 16/563/387 18/564/387 20/565/387 22/566/387 24/567/387 26/568/387 28/569/387 30/570/387 419/571/387 417/572/387 414/573/387 410/574/387 33/575/387 35/576/387 37/577/387 39/578/387 41/579/387 43/580/387 45/581/387 47/582/387 49/583/387 51/584/387 53/585/387 55/586/387 57/587/387 59/588/387 61/589/387
f 422/590/390 424/260/390 93/30/202 63/358/202
f 435/591/391 422/592/391 63/262/171 436/261/171
f 2/556/392 423/555/393 435/593/393 436/594/392
f 4/557/394 2/556/392 436/594/392 437/595/394
f 6/558/395 4/557/394 437/595/394 438/596/395
f 8/559/396 6/558/395 438/596/395 439/597/396
f 10/560/397 8/559/396 439/597/396 440/598/397
f 12/561/398 10/560/397 440/598/397 441/599/398
f 14/562/399 12/561/398 441/599/398 442/600/399
f 16/563/400 14/562/399 442/600/399 443/601/400
f 18/564/401 16/563/400 443/601/400 444/602/401
f 20/565/402 18/564/401 444/602/401 445/603/402
f 22/566/403 20/565/402 445/603/402 446/604/403
f 24/567/404 22/566/403 446/604/403 447/605/404
f 26/568/405 24/567/404 447/605/404 448/606/405
f 28/569/406 26/568/405 448/606/405 449/607/406
f 30/570/407 28/569/406 449/607/406 450/608/407
f 33/575/408 410/574/409 451/609/409 452/610/408
f 35/576/410 33/575/408 452/610/408 453/611/410
f 37/577/411 35/576/410 453/611/410 454/612/411
f 39/578/412 37/577/411 454/612/411 455/613/412
f 41/579/413 39/578/412 455/613/412 456/614/413
f 43/580/414 41/579/413 456/614/413 457/615/414
f 45/581/415 43/580/414 457/615/414 458/616/415
f 47/582/416 45/581/415 458/616/415 459/617/416
f 49/583/417 47/582/416 459/617/416 460/618/417
f 51/584/418 49/583/417 460/618/417 461/619/418
f 53/585/419 51/584/418 461/619/418 462/620/419
f 55/586/420 53/585/419 462/620/419 463/621/420
f 57/587/421 55/586/420 463/621/420 464/622/421
f 59/588/422 57/587/421 464/622/421 465/623/422
f 61/589/423 59/588/422 465/623/422 466/624/423
f 410/574/424 414/573/424 467/625/424 451/609/424
f 414/573/425 417/572/425 468/626/425 467/625/425
f 417/572/426 419/571/426 469/627/426 468/626/426
f 419/571/427 30/570/407 450/608/407 469/627/427
f 423/555/426 426/554/426 470/628/426 435/593/426
f 426/554/428 430/553/428 471/629/428 470/628/428
f 430/553/424 432/552/424 472/630/424 471/629/424
f 432/552/429 61/589/423 466/624/423 472/630/429
o Cylinder.001
v 0.527592 1.247667 -0.222689
v 0.571037 1.247667 -0.218410
v 0.612812 1.247667 -0.205738
v 0.651312 1.247667 -0.185159
v 0.685057 1.247667 -0.157465
v 0.712752 1.247667 -0.123719
v 0.733330 1.247667 -0.085220
v 0.746003 1.247667 -0.043445
v 0.750282 1.247667 0.000000
v 0.746003 1.247667 0.043445
v 0.733330 1.247667 0.085219
v 0.712752 1.247667 0.123719
v 0.685057 1.247667 0.157465
v 0.651312 1.247667 0.185159
v 0.612812 1.247667 0.205738
v 0.571037 1.247667 0.218410
v 0.527592 1.247667 0.222689
v 0.484148 1.247667 0.218410
v 0.442373 1.247667 0.205738
v 0.403873 1.247667 0.185159
v 0.370127 1.247667 0.157465
v 0.342433 1.247667 0.123719
v 0.321854 1.247667 0.085219
v 0.309182 1.247667 0.043444
v 0.304903 1.247667 -0.000000
v 0.309182 1.247667 -0.043445
v 0.321854 1.247667 -0.085220
v 0.342433 1.247667 -0.123720
v 0.370127 1.247667 -0.157465
v 0.403873 1.247667 -0.185160
v 0.442373 1.247667 -0.205738
v 0.484148 1.247667 -0.218411
v 0.527592 1.149340 -0.233521
v 0.573150 1.149340 -0.229034
v 0.616957 1.149340 -0.215745
v 0.657329 1.149340 -0.194165
v 0.692716 1.149340 -0.165124
v 0.721758 1.149340 -0.129737
v 0.743337 1.149340 -0.089365
v 0.756626 1.149340 -0.045558
v 0.761113 1.149340 0.000000
v 0.756626 1.149340 0.045558
v 0.743337 1.149340 0.089364
v 0.721758 1.149340 0.129737
v 0.692716 1.149340 0.165124
v 0.657329 1.149340 0.194165
v 0.616957 1.149340 0.215745
v 0.573150 1.149340 0.229033
v 0.527592 1.149340 0.233520
v 0.482035 1.149340 0.229033
v 0.438228 1.149340 0.215745
v 0.397855 1.149340 0.194165
v 0.362468 1.149340 0.165124
v 0.333427 1.149340 0.129737
v 0.311847 1.149340 0.089364
v 0.298559 1.149340 0.045557
v 0.294072 1.149340 -0.000000
v 0.298559 1.149340 -0.045558
v 0.311848 1.149340 -0.089365
v 0.333427 1.149340 -0.129737
v 0.362469 1.149340 -0.165124
v 0.397856 1.149340 -0.194166
v 0.438228 1.149340 -0.215745
v 0.482035 1.149340 -0.229034
vt 0.262690 0.313796
vt 0.250000 0.315045
vt 0.237310 0.313796
vt 0.225108 0.310094
vt 0.213863 0.304083
vt 0.204006 0.295994
vt 0.195917 0.286137
vt 0.189906 0.274892
vt 0.186205 0.262690
vt 0.184955 0.250000
vt 0.186205 0.237310
vt 0.189906 0.225108
vt 0.195917 0.213863
vt 0.204006 0.204006
vt 0.213863 0.195917
vt 0.225108 0.189906
vt 0.237310 0.186204
vt 0.250000 0.184955
vt 0.262690 0.186205
vt 0.274892 0.189906
vt 0.286137 0.195917
vt 0.295994 0.204006
vt 0.304083 0.213863
vt 0.310094 0.225108
vt 0.313795 0.237310
vt 0.315045 0.250000
vt 0.313795 0.262690
vt 0.310094 0.274892
vt 0.304083 0.286137
vt 0.295994 0.295994
vt 0.286137 0.304083
vt 0.274892 0.310094
vt 0.250000 0.315045
vt 0.237310 0.313796
vt 0.225108 0.310094
vt 0.213863 0.304083
vt 0.204006 0.295994
vt 0.195917 0.286137
vt 0.189906 0.274892
vt 0.186205 0.262690
vt 0.184955 0.250000
vt 0.186205 0.237310
vt 0.189906 0.225108
vt 0.195917 0.213863
vt 0.204006 0.204006
vt 0.213863 0.195917
vt 0.225108 0.189906
vt 0.237310 0.186204
vt 0.250000 0.184955
vt 0.262690 0.186205
vt 0.274892 0.189906
vt 0.286137 0.195917
vt 0.295994 0.204006
vt 0.304083 0.213863
vt 0.310094 0.225108
vt 0.313795 0.237310
vt 0.315045 0.250000
vt 0.313795 0.262690
vt 0.310094 0.274892
vt 0.304083 0.286137
vt 0.295994 0.295994
vt 0.286137 0.304083
vt 0.274892 0.310094
vt 0.262690 0.313796
vn 0.0000 1.0000 0.0000
vn -0.1939 0.1095 -0.9749
vn 0.0000 0.1095 -0.9940
vn -0.3804 0.1095 -0.9183
vn -0.5522 0.1095 -0.8265
vn -0.7029 0.1095 -0.7029
vn -0.8265 0.1095 -0.5522
vn -0.9183 0.1095 -0.3804
vn -0.9749 0.1095 -0.1939
vn -0.9940 0.1095 -0.0000
vn -0.9749 0.1095 0.1939
vn -0.9183 0.1095 0.3804
vn -0.8265 0.1095 0.5522
vn -0.7029 0.1095 0.7029
vn -0.5522 0.1095 0.8265
vn -0.3804 0.1095 0.9183
vn -0.1939 0.1095 0.9749
vn -0.0000 0.1095 0.9940
vn 0.1939 0.1095 0.9749
vn 0.3804 0.1095 0.9183
vn 0.5522 0.1095 0.8265
vn 0.7029 0.1095 0.7029
vn 0.8265 0.1095 0.5522
vn 0.9183 0.1095 0.3804
vn 0.9749 0.1095 0.1939
vn 0.9940 0.1095 -0.0000
vn 0.9749 0.1095 -0.1939
vn 0.9183 0.1095 -0.3804
vn 0.8265 0.1095 -0.5522
vn 0.7029 0.1095 -0.7029
vn 0.5522 0.1095 -0.8265
vn 0.3804 0.1095 -0.9183
vn 0.1939 0.1095 -0.9749
vn 0.0000 -1.0000 -0.0000
usemtl Material.001
s 1
f 474/631/430 473/632/430 504/633/430 503/634/430 502/635/430 501/636/430 500/637/430 499/638/430 498/639/430 497/640/430 496/641/430 495/642/430 494/643/430 493/644/430 492/645/430 491/646/430 490/647/430 489/648/430 488/649/430 487/650/430 486/651/430 485/652/430 484/653/430 483/654/430 482/655/430 481/656/430 480/657/430 479/658/430 478/659/430 477/660/430 476/661/430 475/662/430
f 504/633/431 473/632/432 505/663/432 536/664/431
f 503/634/433 504/633/431 536/664/431 535/665/433
f 502/635/434 503/634/433 535/665/433 534/666/434
f 501/636/435 502/635/434 534/666/434 533/667/435
f 500/637/436 501/636/435 533/667/435 532/668/436
f 499/638/437 500/637/436 532/668/436 531/669/437
f 498/639/438 499/638/437 531/669/437 530/670/438
f 497/640/439 498/639/438 530/670/438 529/671/439
f 496/641/440 497/640/439 529/671/439 528/672/440
f 495/642/441 496/641/440 528/672/440 527/673/441
f 494/643/442 495/642/441 527/673/441 526/674/442
f 493/644/443 494/643/442 526/674/442 525/675/443
f 492/645/444 493/644/443 525/675/443 524/676/444
f 491/646/445 492/645/444 524/676/444 523/677/445
f 490/647/446 491/646/445 523/677/445 522/678/446
f 489/648/447 490/647/446 522/678/446 521/679/447
f 488/649/448 489/648/447 521/679/447 520/680/448
f 487/650/449 488/649/448 520/680/448 519/681/449
f 486/651/450 487/650/449 519/681/449 518/682/450
f 485/652/451 486/651/450 518/682/450 517/683/451
f 484/653/452 485/652/451 517/683/451 516/684/452
f 483/654/453 484/653/452 516/684/452 515/685/453
f 482/655/454 483/654/453 515/685/453 514/686/454
f 481/656/455 482/655/454 514/686/454 513/687/455
f 480/657/456 481/656/455 513/687/455 512/688/456
f 479/658/457 480/657/456 512/688/456 511/689/457
f 478/659/458 479/658/457 511/689/457 510/690/458
f 477/660/459 478/659/458 510/690/458 509/691/459
f 476/661/460 477/660/459 509/691/459 508/692/460
f 475/662/461 476/661/460 508/692/460 507/693/461
f 474/631/462 475/662/461 507/693/461 506/694/462
f 473/632/432 474/631/462 506/694/462 505/663/432
f 505/663/463 506/694/463 507/693/463 508/692/463 509/691/463 510/690/463 511/689/463 512/688/463 513/687/463 514/686/463 515/685/463 516/684/463 517/683/463 518/682/463 519/681/463 520/680/463 521/679/463 522/678/463 523/677/463 524/676/463 525/675/463 526/674/463 527/673/463 528/672/463 529/671/463 530/670/463 531/669/463 532/668/463 533/667/463 534/666/463 535/665/463 536/664/463
o Cube_Cube.001
v 0.269782 1.148910 0.025401
v 0.281974 1.248503 0.025401
v 0.269782 1.148910 -0.023136
v 0.281974 1.248503 -0.023136
v 0.328060 1.148910 0.025401
v 0.340252 1.248503 0.025401
v 0.328060 1.148910 -0.023136
v 0.340252 1.248503 -0.023136
vt 0.375000 0.000000
vt 0.625000 0.000000
vt 0.625000 0.250000
vt 0.375000 0.250000
vt 0.625000 0.500000
vt 0.375000 0.500000
vt 0.625000 0.750000
vt 0.375000 0.750000
vt 0.625000 1.000000
vt 0.375000 1.000000
vt 0.125000 0.500000
vt 0.125000 0.750000
vt 0.875000 0.500000
vt 0.875000 0.750000
vn -0.9926 0.1215 0.0000
vn 0.0000 0.0000 -1.0000
vn 0.9926 -0.1215 0.0000
vn 0.0000 0.0000 1.0000
vn 0.0000 -1.0000 0.0000
vn 0.0000 1.0000 0.0000
usemtl None
s off
f 537/695/464 538/696/464 540/697/464 539/698/464
f 539/698/465 540/697/465 544/699/465 543/700/465
f 543/700/466 544/699/466 542/701/466 541/702/466
f 541/702/467 542/701/467 538/703/467 537/704/467
f 539/705/468 543/700/468 541/702/468 537/706/468
f 544/699/469 540/707/469 538/708/469 542/701/469
o Cube.001_Cube.002
v 0.623456 1.148910 -0.234516
v 0.617360 1.248503 -0.223958
v 0.665490 1.148910 -0.210248
v 0.659394 1.248503 -0.199689
v 0.594316 1.148910 -0.184045
v 0.588220 1.248503 -0.173487
v 0.636351 1.148910 -0.159777
v 0.630255 1.248503 -0.149218
vt 0.375000 0.000000
vt 0.625000 0.000000
vt 0.625000 0.250000
vt 0.375000 0.250000
vt 0.625000 0.500000
vt 0.375000 0.500000
vt 0.625000 0.750000
vt 0.375000 0.750000
vt 0.625000 1.000000
vt 0.375000 1.000000
vt 0.125000 0.500000
vt 0.125000 0.750000
vt 0.875000 0.500000
vt 0.875000 0.750000
vn 0.4963 0.1215 -0.8596
vn 0.8660 0.0000 0.5000
vn -0.4963 -0.1215 0.8596
vn -0.8660 0.0000 -0.5000
vn 0.0000 -1.0000 0.0000
vn 0.0000 1.0000 0.0000
usemtl None
s off
f 545/709/470 546/710/470 548/711/470 547/712/470
f 547/712/471 548/711/471 552/713/471 551/714/471
f 551/714/472 552/713/472 550/715/472 549/716/472
f 549/716/473 550/715/473 546/717/473 545/718/473
f 547/719/474 551/714/474 549/716/474 545/720/474
f 552/713/475 548/721/475 546/722/475 550/715/475
o Cube.002_Cube.003
v 0.696407 1.148910 0.184427
v 0.688787 1.248503 0.174909
v 0.658516 1.148910 0.214761
v 0.650896 1.248503 0.205243
v 0.659985 1.148910 0.138932
v 0.652366 1.248503 0.129414
v 0.622094 1.148910 0.169265
v 0.614475 1.248503 0.159747
vt 0.375000 0.000000
vt 0.625000 0.000000
vt 0.625000 0.250000
vt 0.375000 0.250000
vt 0.625000 0.500000
vt 0.375000 0.500000
vt 0.625000 0.750000
vt 0.375000 0.750000
vt 0.625000 1.000000
vt 0.375000 1.000000
vt 0.125000 0.500000
vt 0.125000 0.750000
vt 0.875000 0.500000
vt 0.875000 0.750000
vn 0.6203 0.1215 0.7749
vn -0.7807 0.0000 0.6250
vn -0.6203 -0.1215 -0.7749
vn 0.7807 0.0000 -0.6250
vn 0.0000 -1.0000 0.0000
vn 0.0000 1.0000 0.0000
usemtl None
s off
f 553/723/476 554/724/476 556/725/476 555/726/476
f 555/726/477 556/725/477 560/727/477 559/728/477
f 559/728/478 560/727/478 558/729/478 557/730/478
f 557/730/479 558/729/479 554/731/479 553/732/479
f 555/733/480 559/728/480 557/730/480 553/734/480
f 560/727/481 556/735/481 554/736/481 558/729/481
o Cube.003_Cube.004
v 0.529111 1.147280 -0.726837
v 0.529111 1.130222 -0.726619
v 0.529111 1.152838 -0.290821
v 0.529111 1.135780 -0.290603
v 0.512052 1.147280 -0.726837
v 0.512052 1.130222 -0.726619
v 0.512052 1.152838 -0.290821
v 0.512052 1.135780 -0.290603
vt 0.375000 0.000000
vt 0.375000 0.250000
vt 0.625000 0.250000
vt 0.625000 0.000000
vt 0.375000 0.500000
vt 0.625000 0.500000
vt 0.375000 0.750000
vt 0.625000 0.750000
vt 0.375000 1.000000
vt 0.625000 1.000000
vt 0.125000 0.500000
vt 0.125000 0.750000
vt 0.875000 0.750000
vt 0.875000 0.500000
vn 1.0000 0.0000 0.0000
vn 0.0000 0.0127 0.9999
vn -1.0000 0.0000 0.0000
vn 0.0000 -0.0127 -0.9999
vn 0.0000 0.9999 -0.0127
vn 0.0000 -0.9999 0.0127
usemtl Material.003
s off
f 561/737/482 563/738/482 564/739/482 562/740/482
f 563/738/483 567/741/483 568/742/483 564/739/483
f 567/741/484 565/743/484 566/744/484 568/742/484
f 565/743/485 561/745/485 562/746/485 566/744/485
f 563/747/486 561/748/486 565/743/486 567/741/486
f 568/742/487 566/744/487 562/749/487 564/750/487
o Cube.004_Cube.005
v 0.512051 1.147280 0.725299
v 0.512051 1.130222 0.725082
v 0.512052 1.152838 0.289283
v 0.512052 1.135780 0.289066
v 0.529111 1.147280 0.725299
v 0.529111 1.130222 0.725082
v 0.529111 1.152838 0.289283
v 0.529111 1.135780 0.289066
vt 0.375000 0.000000
vt 0.375000 0.250000
vt 0.625000 0.250000
vt 0.625000 0.000000
vt 0.375000 0.500000
vt 0.625000 0.500000
vt 0.375000 0.750000
vt 0.625000 0.750000
vt 0.375000 1.000000
vt 0.625000 1.000000
vt 0.125000 0.500000
vt 0.125000 0.750000
vt 0.875000 0.750000
vt 0.875000 0.500000
vn -1.0000 0.0000 -0.0000
vn 0.0000 0.0127 -0.9999
vn 1.0000 0.0000 0.0000
vn 0.0000 -0.0127 0.9999
vn 0.0000 0.9999 0.0127
vn 0.0000 -0.9999 -0.0127
usemtl Material.003
s off
f 569/751/488 571/752/488 572/753/488 570/754/488
f 571/752/489 575/755/489 576/756/489 572/753/489
f 575/755/490 573/757/490 574/758/490 576/756/490
f 573/757/491 569/759/491 570/760/491 574/758/491
f 571/761/492 569/762/492 573/757/492 575/755/492
f 576/756/493 574/758/493 570/763/493 572/764/493
o Cylinder.002_Cylinder.003
v -0.612046 1.045472 -0.053565
v -0.612046 1.152603 -0.053565
v -0.612046 1.045472 0.053565
v -0.612046 1.152603 0.053565
v -0.622496 1.045472 0.052536
v -0.622496 1.152603 0.052536
v -0.632545 1.045472 0.049488
v -0.632545 1.152603 0.049488
v -0.641805 1.045472 0.044538
v -0.641805 1.152603 0.044538
v -0.649923 1.045472 0.037876
v -0.649923 1.152603 0.037876
v -0.656584 1.045472 0.029759
v -0.656584 1.152603 0.029759
v -0.661534 1.045472 0.020499
v -0.661534 1.152603 0.020499
v -0.664582 1.045472 0.010450
v -0.664582 1.152603 0.010450
v -0.665612 1.045472 -0.000000
v -0.665612 1.152603 -0.000000
v -0.664582 1.045472 -0.010450
v -0.664582 1.152603 -0.010450
v -0.661534 1.045472 -0.020499
v -0.661534 1.152603 -0.020499
v -0.656584 1.045472 -0.029759
v -0.656584 1.152603 -0.029759
v -0.649923 1.045472 -0.037877
v -0.649923 1.152603 -0.037877
v -0.641805 1.045472 -0.044538
v -0.641805 1.152603 -0.044538
v -0.632545 1.045472 -0.049488
v -0.632545 1.152603 -0.049488
v -0.622496 1.045472 -0.052536
v -0.622496 1.152603 -0.052536
v -0.482298 1.045472 -0.053565
v -0.471848 1.045472 -0.052536
v -0.471848 1.152603 -0.052536
v -0.482298 1.152603 -0.053565
v -0.461799 1.045472 -0.049488
v -0.461799 1.152603 -0.049488
v -0.452539 1.045472 -0.044538
v -0.452539 1.152603 -0.044538
v -0.444421 1.045472 -0.037876
v -0.444421 1.152603 -0.037876
v -0.437760 1.045472 -0.029759
v -0.437760 1.152603 -0.029759
v -0.432810 1.045472 -0.020499
v -0.432810 1.152603 -0.020499
v -0.429762 1.045472 -0.010450
v -0.429762 1.152603 -0.010450
v -0.428733 1.045472 0.000000
v -0.428733 1.152603 0.000000
v -0.429762 1.045472 0.010450
v -0.429762 1.152603 0.010450
v -0.432810 1.045472 0.020499
v -0.432810 1.152603 0.020499
v -0.437760 1.045472 0.029759
v -0.437760 1.152603 0.029759
v -0.444421 1.045472 0.037876
v -0.444421 1.152603 0.037876
v -0.452539 1.045472 0.044538
v -0.452539 1.152603 0.044538
v -0.461799 1.045472 0.049488
v -0.461799 1.152603 0.049488
v -0.471848 1.045472 0.052536
v -0.471848 1.152603 0.052536
v -0.482298 1.045472 0.053565
v -0.482298 1.152603 0.053565
vt 0.750000 0.010000
vt 0.750000 0.490000
vt 0.750000 0.490000
vt 0.750000 0.010000
vt 0.000000 0.500000
vt 0.000000 1.000000
vt 0.000000 1.000000
vt 0.000000 0.500000
vt 0.500000 0.500000
vt 0.500000 1.000000
vt 0.468750 1.000000
vt 0.468750 0.500000
vt 0.437500 1.000000
vt 0.437500 0.500000
vt 0.406250 1.000000
vt 0.406250 0.500000
vt 0.375000 1.000000
vt 0.375000 0.500000
vt 0.343750 1.000000
vt 0.343750 0.500000
vt 0.312500 1.000000
vt 0.312500 0.500000
vt 0.281250 1.000000
vt 0.281250 0.500000
vt 0.250000 1.000000
vt 0.250000 0.500000
vt 0.218750 1.000000
vt 0.218750 0.500000
vt 0.187500 1.000000
vt 0.187500 0.500000
vt 0.156250 1.000000
vt 0.156250 0.500000
vt 0.125000 1.000000
vt 0.125000 0.500000
vt 0.093750 1.000000
vt 0.093750 0.500000
vt 0.062500 1.000000
vt 0.062500 0.500000
vt 0.500000 0.500000
vt 0.500000 1.000000
vt 0.031250 1.000000
vt 0.031250 0.500000
vt 0.703178 0.014612
vt 0.658156 0.028269
vt 0.616663 0.050447
vt 0.580294 0.080294
vt 0.550447 0.116663
vt 0.528269 0.158156
vt 0.514611 0.203179
vt 0.510000 0.250000
vt 0.514612 0.296822
vt 0.528269 0.341844
vt 0.550447 0.383337
vt 0.580295 0.419706
vt 0.616663 0.449553
vt 0.658156 0.471731
vt 0.703179 0.485389
vt 1.000000 0.500000
vt 1.000000 1.000000
vt 0.968750 1.000000
vt 0.968750 0.500000
vt 0.250000 0.010000
vt 0.250000 0.490000
vt 0.203179 0.485389
vt 0.158156 0.471731
vt 0.116663 0.449553
vt 0.080295 0.419706
vt 0.050447 0.383337
vt 0.028269 0.341844
vt 0.014612 0.296822
vt 0.010000 0.250000
vt 0.014611 0.203179
vt 0.028269 0.158156
vt 0.050447 0.116663
vt 0.080294 0.080294
vt 0.116663 0.050447
vt 0.158156 0.028269
vt 0.203178 0.014612
vt 0.250000 0.010000
vt 0.250000 0.490000
vt 0.937500 1.000000
vt 0.937500 0.500000
vt 0.906250 1.000000
vt 0.906250 0.500000
vt 0.875000 1.000000
vt 0.875000 0.500000
vt 0.843750 1.000000
vt 0.843750 0.500000
vt 0.812500 1.000000
vt 0.812500 0.500000
vt 0.781250 1.000000
vt 0.781250 0.500000
vt 0.750000 1.000000
vt 0.750000 0.500000
vt 0.718750 1.000000
vt 0.718750 0.500000
vt 0.687500 1.000000
vt 0.687500 0.500000
vt 0.656250 1.000000
vt 0.656250 0.500000
vt 0.625000 1.000000
vt 0.625000 0.500000
vt 0.593750 1.000000
vt 0.593750 0.500000
vt 0.562500 1.000000
vt 0.562500 0.500000
vt 0.531250 1.000000
vt 0.531250 0.500000
vt 0.296822 0.485388
vt 0.296822 0.014612
vt 0.341844 0.028269
vt 0.383337 0.050447
vt 0.419706 0.080294
vt 0.449553 0.116663
vt 0.471731 0.158156
vt 0.485388 0.203178
vt 0.490000 0.250000
vt 0.485388 0.296822
vt 0.471731 0.341844
vt 0.449553 0.383337
vt 0.419706 0.419706
vt 0.383337 0.449553
vt 0.341844 0.471731
vt 0.796822 0.485388
vt 0.841844 0.471731
vt 0.883337 0.449553
vt 0.919706 0.419706
vt 0.949553 0.383337
vt 0.971731 0.341844
vt 0.985388 0.296822
vt 0.990000 0.250000
vt 0.985388 0.203178
vt 0.971731 0.158156
vt 0.949553 0.116663
vt 0.919706 0.080294
vt 0.883337 0.050447
vt 0.841844 0.028269
vt 0.796822 0.014612
vn 0.0000 -1.0000 0.0000
vn -0.0491 0.0000 -0.9988
vn 0.0491 0.0000 -0.9988
vn -0.0491 0.0000 0.9988
vn -0.1951 0.0000 0.9808
vn -0.3827 0.0000 0.9239
vn -0.5556 0.0000 0.8315
vn -0.7071 0.0000 0.7071
vn -0.8315 0.0000 0.5556
vn -0.9239 0.0000 0.3827
vn -0.9808 0.0000 0.1951
vn -1.0000 0.0000 -0.0000
vn -0.9808 0.0000 -0.1951
vn -0.9239 0.0000 -0.3827
vn -0.8315 0.0000 -0.5556
vn -0.7071 0.0000 -0.7071
vn -0.5556 0.0000 -0.8315
vn -0.3827 0.0000 -0.9239
vn 0.0491 0.0000 0.9988
vn -0.1951 0.0000 -0.9808
vn 0.1951 0.0000 -0.9808
vn 0.0000 1.0000 -0.0000
vn 0.3827 0.0000 -0.9239
vn 0.5556 0.0000 -0.8315
vn 0.7071 0.0000 -0.7071
vn 0.8315 0.0000 -0.5556
vn 0.9239 0.0000 -0.3827
vn 0.9808 0.0000 -0.1951
vn 1.0000 0.0000 0.0000
vn 0.9808 0.0000 0.1951
vn 0.9239 0.0000 0.3827
vn 0.8315 0.0000 0.5556
vn 0.7071 0.0000 0.7071
vn 0.5556 0.0000 0.8315
vn 0.3827 0.0000 0.9239
vn 0.1951 0.0000 0.9808
usemtl Material.003
s 1
f 579/765/494 577/766/494 611/767/494 643/768/494
f 577/769/495 578/770/495 614/771/496 611/772/496
f 579/773/497 580/774/497 582/775/498 581/776/498
f 581/776/498 582/775/498 584/777/499 583/778/499
f 583/778/499 584/777/499 586/779/500 585/780/500
f 585/780/500 586/779/500 588/781/501 587/782/501
f 587/782/501 588/781/501 590/783/502 589/784/502
f 589/784/502 590/783/502 592/785/503 591/786/503
f 591/786/503 592/785/503 594/787/504 593/788/504
f 593/788/504 594/787/504 596/789/505 595/790/505
f 595/790/505 596/789/505 598/791/506 597/792/506
f 597/792/506 598/791/506 600/793/507 599/794/507
f 599/794/507 600/793/507 602/795/508 601/796/508
f 601/796/508 602/795/508 604/797/509 603/798/509
f 603/798/509 604/797/509 606/799/510 605/800/510
f 605/800/510 606/799/510 608/801/511 607/802/511
f 580/774/497 579/773/497 643/803/512 644/804/512
f 607/802/511 608/801/511 610/805/513 609/806/513
f 609/806/513 610/805/513 578/770/495 577/769/495
f 577/766/494 579/765/494 581/807/494 583/808/494 585/809/494 587/810/494 589/811/494 591/812/494 593/813/494 595/814/494 597/815/494 599/816/494 601/817/494 603/818/494 605/819/494 607/820/494 609/821/494
f 611/822/496 614/823/496 613/824/514 612/825/514
f 580/826/515 578/827/515 610/828/515 608/829/515 606/830/515 604/831/515 602/832/515 600/833/515 598/834/515 596/835/515 594/836/515 592/837/515 590/838/515 588/839/515 586/840/515 584/841/515 582/842/515
f 578/827/515 580/826/515 644/843/515 614/844/515
f 612/825/514 613/824/514 616/845/516 615/846/516
f 615/846/516 616/845/516 618/847/517 617/848/517
f 617/848/517 618/847/517 620/849/518 619/850/518
f 619/850/518 620/849/518 622/851/519 621/852/519
f 621/852/519 622/851/519 624/853/520 623/854/520
f 623/854/520 624/853/520 626/855/521 625/856/521
f 625/856/521 626/855/521 628/857/522 627/858/522
f 627/858/522 628/857/522 630/859/523 629/860/523
f 629/860/523 630/859/523 632/861/524 631/862/524
f 631/862/524 632/861/524 634/863/525 633/864/525
f 633/864/525 634/863/525 636/865/526 635/866/526
f 635/866/526 636/865/526 638/867/527 637/868/527
f 637/868/527 638/867/527 640/869/528 639/870/528
f 639/870/528 640/869/528 642/871/529 641/872/529
f 641/872/529 642/871/529 644/804/512 643/803/512
f 613/873/515 614/844/515 644/843/515 642/874/515 640/875/515 638/876/515 636/877/515 634/878/515 632/879/515 630/880/515 628/881/515 626/882/515 624/883/515 622/884/515 620/885/515 618/886/515 616/887/515
f 643/768/494 611/767/494 612/888/494 615/889/494 617/890/494 619/891/494 621/892/494 623/893/494 625/894/494 627/895/494 629/896/494 631/897/494 633/898/494 635/899/494 637/900/494 639/901/494 641/902/494
